<?xml version="1.0" standalone="no"?>
<!DOCTYPE svg PUBLIC "-//W3C//DTD SVG 1.1//EN" "http://www.w3.org/Graphics/SVG/1.1/DTD/svg11.dtd" >
<svg xmlns="http://www.w3.org/2000/svg">
<metadata>
This is a custom SVG webfont generated by Font Squirrel.
Copyright   :  Copyright c 1989 Fundicion Tipografica Neufville S A This record material and the data recorded thereon is the property of Fundicion Tipografica Neufville S A and Adobe Systems Incorporated or its licensors and may not be reproduced used displayed modified disclosed or transferred in any manner without the express written approval of Fundicion Tipografica Neufville S A and Adobe Systems Incorporated 
</metadata>
<defs>
<font id="SerifaItalic" horiz-adv-x="1138" >
<font-face units-per-em="2048" ascent="1638" descent="-410" />
<missing-glyph horiz-adv-x="569" />
<glyph unicode=" "  horiz-adv-x="569" />
<glyph unicode="&#x09;" horiz-adv-x="569" />
<glyph unicode="&#xa0;" horiz-adv-x="569" />
<glyph unicode="!" horiz-adv-x="796" d="M205 0l45 193h196l-43 -193h-198zM311 319l185 1020h209l-269 -1020h-125z" />
<glyph unicode="&#x22;" d="M487 868v471h156v-471h-156zM797 868v471h155v-471h-155z" />
<glyph unicode="#" d="M141 418v119h215l37 270h-194v119h211l57 413h123l-58 -413h244l58 413h120l-57 -413h186v-119h-202l-37 -270h182v-119h-199l-57 -418h-123l58 418h-244l-58 -418h-120l57 418h-199zM477 537h244l39 270h-244z" />
<glyph unicode="$" d="M0 0l94 442h162q-8 -39 -8 -82q0 -201 196 -237l107 500q-76 29 -125 52t-103.5 65t-81 103.5t-26.5 143.5q0 201 138.5 287t357.5 86l39 178h114l-43 -199q137 -27 207 -131l31 131h166l-95 -426h-161q10 45 10 74q0 84 -49 145.5t-135 86.5l-99 -459q66 -25 105 -41.5 t93 -49t84 -67.5t51.5 -90t21.5 -123q0 -193 -132.5 -301t-320.5 -108q-47 0 -70 4l-43 -197h-114l47 213q-145 29 -223 137l-27 -137h-168zM410 993q0 -70 46 -113.5t134 -80.5l92 430q-272 0 -272 -236zM557 111q156 2 227.5 67.5t71.5 200.5q0 74 -51 120t-148 83z" />
<glyph unicode="%" horiz-adv-x="1630" d="M256 -37l1079 1413h150l-1079 -1413h-150zM258 930q0 170 89 300t251 130q141 0 204.5 -65.5t63.5 -209.5q0 -170 -89 -300t-251 -130q-141 0 -204.5 66t-63.5 209zM401 924q0 -162 115 -162q80 0 129 57.5t63.5 125t14.5 147.5q0 162 -115 161q-80 0 -129 -57 t-63.5 -124.5t-14.5 -147.5zM874 254q0 170 89.5 300t250.5 130q141 0 205 -65.5t64 -208.5q0 -170 -89 -300t-251 -130q-141 0 -205 65.5t-64 208.5zM1018 248q0 -162 115 -162q80 0 129 57.5t63 125t14 147.5q0 162 -114 162q-80 0 -129 -57.5t-63.5 -125t-14.5 -147.5z " />
<glyph unicode="&#x26;" horiz-adv-x="1593" d="M117 340q0 166 99 262t276 156q-127 150 -127 293q0 147 108.5 228t267.5 81q145 0 247 -66.5t102 -206.5q0 -215 -351 -382l316 -371q117 137 151 323h-162l31 131h486l-31 -131h-154q-80 -287 -227 -436l82 -90h215l-29 -131h-289l-102 123q-184 -143 -428 -143 q-94 0 -176 18t-152.5 58t-111.5 113t-41 171zM297 356q0 -123 88 -184t217 -61q195 0 338 114l-365 424q-115 -37 -196.5 -112t-81.5 -181zM545 1028q0 -18 5 -38.5t10 -35t20.5 -40t21.5 -34.5l27 -39q20 -30 22 -34q55 27 92 47t83 54t71 76t25 89q0 76 -47.5 116 t-124.5 40q-100 0 -152.5 -52.5t-52.5 -148.5z" />
<glyph unicode="'" horiz-adv-x="569" d="M354 868v471h156v-471h-156z" />
<glyph unicode="(" horiz-adv-x="681" d="M211 381q0 309 141.5 588.5t386.5 509.5h144q-252 -264 -378 -518t-126 -580q0 -383 131 -627h-141q-158 297 -158 627z" />
<glyph unicode=")" horiz-adv-x="681" d="M-127 -246q252 264 378 518t126 580q0 383 -131 627h141q158 -297 158 -627q0 -309 -141.5 -588.5t-387.5 -509.5h-143z" />
<glyph unicode="*" d="M369 911l256 99l-232 120l76 115l203 -168v262h133l-51 -266l223 137l63 -112l-256 -97l224 -120l-70 -115l-199 166v-256h-133l51 262l-229 -141z" />
<glyph unicode="+" horiz-adv-x="1228" d="M96 440v156h441v440h155v-440h441v-156h-441v-440h-155v440h-441z" />
<glyph unicode="," horiz-adv-x="569" d="M-16 -266l198 266h-76l44 205h208l-47 -221l-178 -250h-149z" />
<glyph unicode="-" horiz-adv-x="681" d="M123 473l35 156h460l-34 -156h-461z" />
<glyph unicode="." horiz-adv-x="569" d="M106 0l44 205h208l-43 -205h-209z" />
<glyph unicode="/" horiz-adv-x="796" d="M-63 -20l841 1380h164l-842 -1380h-163z" />
<glyph unicode="0" d="M125 449q0 141 30.5 289.5t95 293t185.5 236.5t281 92q209 0 302 -128t93 -341q0 -141 -30.5 -289.5t-95 -293t-185.5 -236.5t-281 -92q-209 0 -302 128t-93 341zM305 399q0 -289 223 -288q113 0 198 95t127 237.5t60.5 269.5t18.5 227q0 289 -223 289q-113 0 -198 -95.5 t-127 -237.5t-60.5 -269.5t-18.5 -227.5z" />
<glyph unicode="1" d="M266 0l27 131h207l200 967q-178 -129 -354 -176l37 182q238 76 369 235h172l-252 -1208h184l-27 -131h-563z" />
<glyph unicode="2" d="M16 0l39 188q528 336 705 578q104 143 104 272q0 84 -51 137.5t-143 53.5q-127 0 -189.5 -72t-85.5 -209h-182q29 199 142.5 305.5t293.5 106.5q395 0 395 -309q0 -162 -61 -265q-47 -86 -133 -178t-211 -188l-199 -149l-198 -136v-4h561l45 215h164l-74 -346h-922z" />
<glyph unicode="3" d="M94 367h180q0 -141 59.5 -198.5t194.5 -57.5q295 0 295 299q0 115 -85 164t-212 42l29 132q383 -12 383 260q0 109 -62.5 165t-168.5 56q-260 0 -275 -260h-190q25 195 145.5 293t321.5 98q180 0 294.5 -88t114.5 -256q0 -158 -96 -250t-256 -92v-4q123 -2 180.5 -85 t57.5 -210q0 -190 -142.5 -292.5t-345.5 -102.5q-199 0 -310.5 98.5t-111.5 288.5z" />
<glyph unicode="4" d="M29 346l45 215l719 778h260l-181 -862h213l-26 -131h-213l-45 -215h172l-27 -131h-522l27 131h178l45 215h-645zM199 477h510l157 750h4z" />
<glyph unicode="5" d="M119 340h186q6 -131 62.5 -180t187.5 -49q147 0 224 106.5t77 261.5q0 111 -58.5 177.5t-168.5 68.5q-205 0 -262 -176h-191l180 790h797l-23 -131h-634l-107 -448l4 -4q102 100 269 100q168 0 271 -99.5t103 -267.5q0 -233 -133 -371t-368 -138q-190 0 -302 90t-114 270 z" />
<glyph unicode="6" d="M113 416q0 86 17 197.5t63.5 244.5t112 243.5t175 184.5t242.5 74q190 0 284.5 -83t104.5 -267h-180q0 100 -47 159.5t-142 59.5q-63 0 -116.5 -17.5t-93 -59.5t-65.5 -75t-52.5 -105.5t-36.5 -103t-33 -116.5q-6 -18 -8 -29l4 -4q137 137 311 137t266.5 -103.5 t92.5 -279.5q0 -227 -141.5 -360t-370.5 -133q-164 0 -275.5 112.5t-111.5 323.5zM293 350q0 -111 59.5 -175t165.5 -64q150 0 231.5 102t81.5 258q0 111 -58 182.5t-163 71.5q-150 0 -233.5 -109.5t-83.5 -265.5z" />
<glyph unicode="7" d="M184 952l88 387h932l-37 -168q-152 -231 -357.5 -606t-270.5 -565h-211q82 186 212 426t203 362l252 420h-589l-56 -256h-166z" />
<glyph unicode="8" d="M104 319q0 344 388 369v4q-238 55 -238 314q0 51 26.5 108t80 114.5t150.5 94.5t218 37q154 0 277.5 -82t123.5 -219q0 -168 -99 -261t-259 -116v-4q117 -14 177.5 -88t60.5 -193q0 -203 -144.5 -310t-382.5 -107q-162 0 -270.5 90.5t-108.5 248.5zM285 340 q0 -117 57 -173t178 -56q131 0 220 74.5t89 195.5q0 240 -225 240q-137 0 -228 -75t-91 -206zM434 967q0 -104 55.5 -159.5t157.5 -55.5q137 0 220 72.5t83 205.5q0 199 -243 199q-113 0 -193 -70.5t-80 -191.5z" />
<glyph unicode="9" d="M113 330h180q0 -100 47 -159.5t141 -59.5q63 0 116.5 17t93.5 59t65.5 75t52.5 105.5t37 103.5t33 117q6 18 8 28l-4 5q-137 -137 -311.5 -137.5t-266.5 103t-92 279.5q0 227 141.5 360.5t370.5 133.5q164 0 275.5 -112.5t111.5 -323.5q0 -86 -17.5 -198t-63.5 -245 t-111.5 -243.5t-175 -184t-242.5 -73.5q-190 0 -284.5 83t-104.5 267zM393 868q0 -111 58.5 -182.5t162.5 -71.5q150 0 234 110t84 265q0 111 -59.5 175.5t-165.5 64.5q-150 0 -232 -102.5t-82 -258.5z" />
<glyph unicode=":" horiz-adv-x="569" d="M106 0l44 205h208l-43 -205h-209zM260 729l43 205h209l-43 -205h-209z" />
<glyph unicode=";" horiz-adv-x="569" d="M-16 -266l198 266h-76l44 205h208l-47 -221l-178 -250h-149zM260 729l43 205h209l-43 -205h-209z" />
<glyph unicode="&#x3c;" horiz-adv-x="1228" d="M94 449v139l1041 465v-154l-850 -381l850 -381v-153z" />
<glyph unicode="=" horiz-adv-x="1228" d="M96 231v156h1037v-156h-1037zM96 649v156h1037v-156h-1037z" />
<glyph unicode="&#x3e;" horiz-adv-x="1228" d="M94 -16v153l850 381l-850 381v154l1041 -465v-139z" />
<glyph unicode="?" horiz-adv-x="1024" d="M195 977q33 201 137 292t307 91q178 0 286.5 -92t108.5 -269q0 -143 -62.5 -226t-197.5 -150q-16 -8 -56 -25.5t-67.5 -32t-52.5 -33.5q-68 -49 -88 -213h-174q31 199 96 271q27 29 67 54.5t113.5 62t106.5 55.5q135 84 135 221q0 121 -58.5 177.5t-181.5 56.5 q-119 0 -173 -58.5t-74 -181.5h-172zM264 0l45 193h197l-43 -193h-199z" />
<glyph unicode="@" horiz-adv-x="1638" d="M156 674q0 287 204.5 486.5t489.5 199.5q262 0 447.5 -162t185.5 -410q0 -227 -148.5 -377.5t-292.5 -150.5q-49 0 -81.5 28.5t-34.5 84.5h-4q-100 -113 -219 -113t-196 85t-77 208q0 197 121 352.5t305 155.5q145 1 211 -143l37 112h125l-148 -514q-18 -59 -18 -92 q0 -45 39 -45q96 0 179 124t83 271q0 211 -148.5 339t-365.5 128q-244 0 -403.5 -169t-159.5 -408.5t166 -402.5t411 -163q129 0 248 54.5t199 146.5h123q-90 -150 -244 -234.5t-330 -84.5q-297 0 -500.5 200.5t-203.5 493.5zM586 567q0 -78 43 -127t106 -49q111 0 193 123 t82 244q0 70 -45 121t-105 51q-113 0 -193.5 -118t-80.5 -245z" />
<glyph unicode="A" horiz-adv-x="1593" d="M-59 0l28 131h109l801 1208h215l272 -1208h129l-29 -131h-501l28 131h183l-66 311h-623l-202 -311h192l-28 -131h-508zM573 573h512l-127 588z" />
<glyph unicode="B" horiz-adv-x="1366" d="M0 0l27 131h170l225 1077h-172l29 131h614q401 0 401 -331q0 -141 -89 -229.5t-238 -104.5v-4q115 -16 177 -91t62 -190q0 -389 -590 -389h-616zM383 131h233q395 0 396 275q0 68 -30 112q-32 47 -97.5 65.5t-112.5 22.5t-127 4h-164zM510 741h145q57 0 88 1t86.5 5.5 t88 13.5t74.5 28.5t65.5 46t40 68.5t16.5 95q0 109 -80 161q-74 48 -181 49q-8 0 -17 -1h-230z" />
<glyph unicode="C" horiz-adv-x="1478" d="M160 551q0 340 199.5 574.5t541.5 234.5q145 0 257 -55.5t163 -159.5h4l41 194h170l-106 -505h-170q2 14 2 88q0 145 -113 226t-264 81q-168 0 -293 -105.5t-181.5 -257t-56.5 -321.5q0 -434 379 -434q178 0 283.5 85t154.5 261h199q-123 -477 -641 -477 q-279 0 -424 147.5t-145 423.5z" />
<glyph unicode="D" horiz-adv-x="1478" d="M-8 0l26 131h175l233 1077h-186l26 131h623q260 0 403.5 -145t143.5 -422q0 -84 -16.5 -172t-66.5 -199.5t-131 -197.5t-225.5 -144.5t-332.5 -58.5h-672zM379 131h217q315 0 480 166t165 494q0 418 -389 417h-244z" />
<glyph unicode="E" horiz-adv-x="1366" d="M4 0l25 131h178l227 1077h-182l24 131h1141l-88 -401h-166l60 270h-605l-96 -467h299l41 195h156l-113 -522h-155l41 196h-297l-103 -479h621l61 283h166l-90 -414h-1145z" />
<glyph unicode="F" horiz-adv-x="1251" d="M-23 0l27 131h182l226 1077h-183l27 131h1124l-86 -415h-166l58 284h-590l-96 -467h293l43 195h151l-110 -535h-152l43 209h-297l-98 -479h217l-29 -131h-584z" />
<glyph unicode="G" horiz-adv-x="1593" d="M160 551q0 340 199.5 574.5t541.5 234.5q145 0 257 -55.5t163 -159.5h4l41 194h170l-106 -505h-170q2 14 2 88q0 145 -113 226t-264 81q-168 0 -293 -105.5t-181.5 -257t-56.5 -321.5q0 -434 379 -434q188 0 304 110.5t163 306.5h-242l27 131h602l-26 -131h-191 l-110 -528h-177l35 150l-4 4q-63 -84 -168.5 -129t-216.5 -45q-279 0 -424 147.5t-145 423.5z" />
<glyph unicode="H" horiz-adv-x="1593" d="M0 0l27 131h174l225 1077h-180l26 131h553l-26 -131h-187l-96 -467h682l96 467h-184l27 131h549l-27 -131h-178l-226 -1077h185l-27 -131h-553l27 131h182l100 479h-682l-100 -479h186l-26 -131h-547z" />
<glyph unicode="I" horiz-adv-x="681" d="M0 0l27 131h176l223 1077h-178l22 131h535l-27 -131h-168l-223 -1077h178l-26 -131h-539z" />
<glyph unicode="J" horiz-adv-x="1024" d="M29 350v43h180v-43q0 -115 43 -175t149 -64q5 0 10 -1q101 0 150 83q51 86 98 305l154 710h-201l29 131h543l-29 -131h-160l-190 -886q-37 -170 -132 -256t-272 -86q-195 0 -283.5 94t-88.5 276z" />
<glyph unicode="K" horiz-adv-x="1366" d="M4 0l25 131h170l233 1077h-182l26 131h539l-29 -131h-172l-96 -446l608 434l2 12h-184l29 131h549l-29 -131h-113l-655 -485l436 -592h109l-29 -131h-491l28 131h168l-436 582l-125 -582h184l-28 -131h-537z" />
<glyph unicode="L" horiz-adv-x="1251" d="M-10 0l26 131h179l225 1077h-178l26 131h566l-27 -131h-201l-225 -1077h551l67 326h172l-94 -457h-1087z" />
<glyph unicode="M" horiz-adv-x="1933" d="M12 0l29 131h168l231 1077h-178l29 131h489l135 -1069h5l632 1069h471l-26 -131h-170l-234 -1077h183l-29 -131h-547l29 131h180l244 1065h-6l-697 -1196h-172l-160 1200h-4l-237 -1069h192l-28 -131h-529z" />
<glyph unicode="N" horiz-adv-x="1593" d="M4 0l27 131h174l225 1077h-174l27 131h450l400 -1144h4l211 1013h-191l27 131h534l-26 -131h-172l-252 -1208h-254l-418 1171h-4l-217 -1040h188l-26 -131h-533z" />
<glyph unicode="O" horiz-adv-x="1593" d="M166 551q0 344 209 576.5t551 232.5q281 0 436.5 -151.5t155.5 -420.5q0 -344 -209 -576t-551 -232q-281 0 -436.5 151.5t-155.5 419.5zM360 526q0 -203 104.5 -309t295.5 -106q260 0 411.5 209.5t151.5 492.5q0 203 -104.5 309.5t-294.5 106.5q-260 0 -412 -210 t-152 -493z" />
<glyph unicode="P" horiz-adv-x="1251" d="M0 0l27 131h170l231 1077h-180l28 131h486q63 0 99 -1t99.5 -7t101.5 -19.5t87 -39t74.5 -62t45 -94t19.5 -131.5q0 -223 -148.5 -334.5t-367.5 -111.5h-303l-86 -408h190l-24 -131h-549zM496 670h245q160 0 263.5 79.5t103.5 231.5q0 63 -23.5 107.5t-55.5 68t-87 35.5 t-96 14t-105 2h-133z" />
<glyph unicode="Q" horiz-adv-x="1593" d="M166 551q0 344 209 576.5t551 232.5q281 0 436.5 -151.5t155.5 -420.5q0 -207 -80 -377.5t-228 -275.5v-4h306l-27 -131l-592 -8q-66 -12 -139 -12q-281 0 -436.5 151.5t-155.5 419.5zM360 526q0 -203 104.5 -309t295.5 -106q260 0 411.5 209.5t151.5 492.5 q0 203 -104.5 309.5t-294.5 106.5q-260 0 -412 -210t-152 -493z" />
<glyph unicode="R" horiz-adv-x="1366" d="M0 0l27 131h168l233 1077h-182l28 131h535q92 0 142 -2t119 -18t110 -47q129 -76 129 -248q0 -174 -105.5 -267t-283.5 -108v-4q137 -27 193 -90t56 -201q0 -96 -30 -223h131l-29 -131h-299q47 219 47 344q0 121 -41 173t-139 63q-94 5 -163 4h-44h-125l-98 -453h184 l-26 -131h-537zM508 715h205q82 4 118.5 7t97 20.5t95.5 45.5q90 80 90 216q0 115 -67 165q-56 39 -234 40q-17 0 -35 -1h-166z" />
<glyph unicode="S" d="M0 0l94 442h162q-8 -43 -8 -90q0 -242 307 -241q135 0 218 66.5t83 201.5q0 37 -20.5 70.5t-44 55t-75.5 47.5t-82 38l-97 39q-74 27 -121 52.5t-98.5 66t-77 101t-25.5 138.5q0 184 130 278.5t319 94.5q111 0 209 -39t153 -121l33 139h166l-95 -426h-161q12 43 8 84 q-4 106 -88 169t-217 63q-111 0 -186.5 -56.5t-75.5 -179.5q0 -86 61 -128t234 -107q18 -6 26 -10q72 -29 119 -53.5t98 -65.5t77 -101.5t26 -138.5q0 -195 -126 -302t-329 -107q-289 0 -401 157l-27 -137h-168z" />
<glyph unicode="T" horiz-adv-x="1366" d="M186 934l84 405h1207l-82 -405h-176l57 274h-336l-223 -1077h194l-26 -131h-572l27 131h190l224 1077h-336l-56 -274h-176z" />
<glyph unicode="U" horiz-adv-x="1478" d="M195 1208l26 131h533l-27 -131h-172l-152 -698q-18 -84 -18 -154q0 -102 92 -173.5t201 -71.5q209 0 293 78.5t131 291.5l158 727h-183l25 131h524l-27 -131h-163l-179 -798q-55 -242 -183 -336t-392 -94q-184 0 -330.5 106.5t-146.5 253.5q0 102 22 219l135 649h-167z " />
<glyph unicode="V" horiz-adv-x="1478" d="M197 1208l28 131h471l-28 -131h-170l184 -1009l623 1009h-175l29 131h486l-29 -131h-115l-747 -1208h-213l-226 1208h-118z" />
<glyph unicode="W" horiz-adv-x="2048" d="M199 1208l28 131h465l-26 -131h-181l50 -1028h4l563 1159h246l63 -1159h4l486 1028h-189l29 131h487l-26 -131h-111l-604 -1208h-244l-55 1147h-4l-561 -1147h-240l-76 1208h-108z" />
<glyph unicode="X" horiz-adv-x="1478" d="M-70 0l29 131h119l598 590l-303 487h-133l28 131h531l-29 -131h-195l242 -387l391 387h-190l26 131h553l-28 -131h-144l-520 -514l344 -563h121l-29 -131h-530l29 131h200l-276 455l-461 -455h209l-29 -131h-553z" />
<glyph unicode="Y" horiz-adv-x="1366" d="M199 1208l28 131h486l-29 -131h-182l231 -510l461 510h-195l29 131h514l-26 -131h-121l-596 -665l-88 -412h194l-28 -131h-574l29 131h196l88 412l-311 665h-106z" />
<glyph unicode="Z" horiz-adv-x="1251" d="M-14 0l41 201l1065 1007h-666l-53 -266h-178l81 397h1059l-41 -188l-1079 -1020h705l57 279h172l-86 -410h-1077z" />
<glyph unicode="[" horiz-adv-x="681" d="M115 -246l374 1725h318l-29 -119h-151l-322 -1487h152l-29 -119h-313z" />
<glyph unicode="\" horiz-adv-x="796" d="M80 1360h164l555 -1380h-164z" />
<glyph unicode="]" horiz-adv-x="681" d="M-59 -246l28 119h148l325 1487h-151l28 119h314l-381 -1725h-311z" />
<glyph unicode="^" horiz-adv-x="1228" d="M111 471l432 868h143l432 -868h-157l-349 705l-344 -705h-157z" />
<glyph unicode="_" horiz-adv-x="1024" d="M0 -154h1024v-102h-1024v102z" />
<glyph unicode="`" horiz-adv-x="569" d="M172 1360h229l193 -295h-145z" />
<glyph unicode="a" d="M63 258q0 186 159 248.5t507 62.5h64q18 78 18 127q-8 127 -213 127q-94 0 -163.5 -41t-76.5 -116h-174q41 289 418 288q68 0 128.5 -10t119.5 -34.5t94 -74t35 -116.5q0 -74 -18 -160l-93 -428h168l-28 -131h-316l37 172h-4q-88 -193 -330 -192q-150 0 -241 66.5 t-91 211.5zM231 256q0 -70 49.5 -107.5t122.5 -37.5q287 0 365 327h-55q-268 0 -375 -46t-107 -136z" />
<glyph unicode="b" horiz-adv-x="1251" d="M-25 0l27 131h152l233 1077h-162l29 131h334l-109 -520h4q123 135 299 135q182 0 288 -106.5t106 -292.5q0 -248 -132.5 -411.5t-367.5 -163.5q-117 0 -208 55t-130 164h-4l-43 -199h-316zM393 397q0 -131 72 -208.5t194 -77.5q158 0 247 129t89 299q0 135 -69.5 209.5 t-200.5 74.5q-156 0 -244 -130t-88 -296z" />
<glyph unicode="c" horiz-adv-x="1024" d="M92 401q0 248 142.5 400.5t386.5 152.5q195 0 288 -114l21 94h141l-78 -352h-147q9 29 9 58q0 10 -1 19q-10 164 -229 164q-176 0 -264.5 -125t-88.5 -311q0 -131 68 -203.5t195 -72.5q88 0 159.5 59t85.5 147h166q-29 -170 -143.5 -253.5t-292.5 -83.5 q-199 0 -308.5 109t-109.5 312z" />
<glyph unicode="d" horiz-adv-x="1251" d="M86 379q0 248 132 411.5t368 163.5q113 -4 205 -54t137 -142h4l94 450h-166l27 131h346l-260 -1208h162l-27 -131h-336l25 121h-4q-133 -135 -314 -141q-182 0 -287.5 106.5t-105.5 292.5zM266 395q0 -135 70 -209.5t201 -74.5q156 0 243.5 130t87.5 296 q0 131 -71.5 208.5t-194.5 77.5q-158 0 -247 -129t-89 -299z" />
<glyph unicode="e" horiz-adv-x="1024" d="M72 373q0 242 135 411.5t366 169.5q408 0 408 -401q0 -43 -16 -133h-719q-6 -31 -6 -103q0 -96 57 -151t162 -55q246 0 299 184h166q-39 -152 -162 -233.5t-283 -81.5q-407 0 -407 393zM262 551h547q4 45 4 57q0 215 -225 215q-260 0 -326 -272z" />
<glyph unicode="f" horiz-adv-x="681" d="M-14 0l26 131h160l141 672h-184l27 131h180l37 153q66 272 338 273q82 0 180 -23l-35 -125q-78 16 -115 17q-84 0 -137 -52.5t-72 -136.5l-22 -106h223l-26 -131h-224l-139 -672h164l-29 -131h-493z" />
<glyph unicode="g" horiz-adv-x="1214" d="M-2 -72h168q6 -156 235 -155q180 0 256 53t107 217l20 115l-4 4q-123 -135 -307 -135q-174 0 -273.5 110.5t-99.5 282.5q0 233 137.5 383.5t370.5 150.5q106 0 189.5 -44t120.5 -122h4l30 146h312l-29 -131h-150l-159 -756q-49 -233 -171 -319t-372 -86q-160 0 -272.5 68 t-112.5 218zM281 422q0 -264 235 -264q160 0 254 125t94 290q0 115 -62.5 189t-178.5 74q-164 0 -253 -120t-89 -294z" />
<glyph unicode="h" horiz-adv-x="1251" d="M-20 0l26 131h152l225 1077h-156l27 131h332l-121 -559h4q51 82 138 128t188 46q123 0 214 -60t91 -177q0 -78 -29 -207l-86 -379h148l-29 -131h-467l29 131h147l82 375q25 119 25 149q0 168 -175 168q-158 0 -235.5 -101t-112.5 -278l-67 -313h155l-28 -131h-477z" />
<glyph unicode="i" horiz-adv-x="569" d="M-27 0l27 131h147l142 672h-158l27 131h331l-167 -803h147l-27 -131h-469zM324 1147l41 192h208l-41 -192h-208z" />
<glyph unicode="j" horiz-adv-x="569" d="M-170 -344l29 137q45 -20 118 -20q37 0 56.5 8t41 52t40.5 134l174 836h-158l25 131h333l-196 -950q-33 -162 -100.5 -252t-215.5 -90q-26 0 -147 14zM324 1147l41 192h208l-41 -192h-208z" />
<glyph unicode="k" d="M-20 0l26 131h148l225 1077h-150l27 131h322l-177 -843l433 303v4h-170l28 131h498l-27 -131h-110l-295 -207l180 -465h100l-26 -131h-414l29 131h141l-137 377l-266 -189l-39 -188h168l-27 -131h-487z" />
<glyph unicode="l" horiz-adv-x="569" d="M-39 0l27 131h147l225 1077h-151l27 131h323l-252 -1208h164l-29 -131h-481z" />
<glyph unicode="m" horiz-adv-x="1820" d="M-25 0l27 131h154l145 672h-162l27 131h328l-33 -156h4q53 80 142 128t188 48q256 0 264 -206h4q102 207 334 206q113 0 203 -53t90 -160q0 -70 -31 -227l-84 -383h139l-26 -131h-457l26 131h146l74 342q33 147 32 211q0 72 -46 105.5t-120 33.5q-70 0 -126 -32.5 t-91.5 -86t-58.5 -105.5t-35 -107l-80 -361h150l-25 -131h-467l27 131h141l72 328q41 184 41 217q0 70 -44 107.5t-124 39.5q-115 2 -200 -92t-109 -207l-86 -393h155l-28 -131h-480z" />
<glyph unicode="n" horiz-adv-x="1251" d="M-20 0l26 131h152l139 672h-156l27 131h328l-31 -154h4q51 82 138 128t188 46q123 0 214 -60t91 -177q0 -78 -29 -207l-86 -379h148l-29 -131h-467l29 131h147l82 375q25 119 25 149q0 168 -175 168q-158 0 -235.5 -101t-112.5 -278l-67 -313h155l-28 -131h-477z" />
<glyph unicode="o" d="M90 381q0 252 152.5 412.5t402.5 160.5q207 0 310.5 -104.5t103.5 -296.5q0 -252 -152.5 -412.5t-402.5 -160.5q-205 0 -309.5 104t-104.5 297zM270 373q0 -127 63.5 -194.5t186.5 -67.5q166 0 262.5 136t96.5 314q0 127 -63.5 194.5t-186.5 67.5q-166 0 -262.5 -136 t-96.5 -314z" />
<glyph unicode="p" horiz-adv-x="1251" d="M-92 -338l29 131h143l219 1010h-154l27 131h330l-23 -115h4q123 135 299 135q182 0 288 -106.5t106 -292.5q0 -248 -132.5 -411.5t-367.5 -163.5q-113 0 -195 43t-145 143l-82 -373h168l-29 -131h-485zM401 397q0 -131 68 -208.5t190 -77.5q158 0 247 129t89 299 q0 135 -69.5 209.5t-200.5 74.5q-113 0 -218.5 -121t-105.5 -305z" />
<glyph unicode="q" horiz-adv-x="1251" d="M86 379q0 248 132 411.5t368 163.5q113 -4 205 -54t137 -142h4l37 176h319l-28 -131h-144l-219 -1014h172l-29 -131h-491l29 131h149l70 332h-4q-154 -141 -314 -141q-182 0 -287.5 106.5t-105.5 292.5zM266 395q0 -135 70 -209.5t201 -74.5q156 0 243.5 130t87.5 296 q0 131 -71.5 208.5t-194.5 77.5q-158 0 -247 -129t-89 -299z" />
<glyph unicode="r" horiz-adv-x="796" d="M-25 0l27 131h152l141 672h-156l27 131h328l-41 -174l4 -4q111 199 309 198q20 0 106 -14l-32 -152l-43 8.5t-49 6.5q-281 0 -332 -254l-90 -418h172l-27 -131h-496z" />
<glyph unicode="s" horiz-adv-x="909" d="M-18 0l73 332h140q0 -119 58 -170t185 -51q82 0 136.5 37.5t54.5 107.5q0 68 -50.5 102.5t-195.5 71.5q-57 14 -94 29.5t-77 43t-59.5 73t-19.5 106.5q0 129 109.5 200.5t244.5 71.5q213 0 281 -106l14 86h142l-68 -305h-135q6 31 6 55q0 74 -70.5 106.5t-158.5 32.5 q-55 0 -92 -6t-71 -37.5t-34 -89.5q0 -51 51 -80.5t195 -68.5q131 -35 190.5 -91.5t59.5 -170.5q0 -141 -101.5 -220t-242.5 -79q-102 0 -173 29.5t-130 109.5l-27 -119h-141z" />
<glyph unicode="t" horiz-adv-x="796" d="M104 803l29 131h166l45 209l174 20l-47 -229h299l-29 -131h-297l-94 -457q-16 -74 -16 -123q0 -113 102 -112q55 0 93 51t49 114h141q-45 -297 -311 -296q-117 0 -185.5 59t-68.5 166q0 43 41 237l75 361h-166z" />
<glyph unicode="u" horiz-adv-x="1251" d="M119 803l20 131h336l-108 -535q-27 -123 -27 -145q0 -68 42 -105.5t116 -37.5q260 0 327 292l90 400h-174l29 131h342l-170 -803h154l-27 -131h-311l37 154h-4q-53 -80 -140.5 -127t-185.5 -47q-125 0 -215 60t-90 181q0 74 28 203l86 379h-155z" />
<glyph unicode="v" d="M96 803l29 131h436l-29 -131h-157l110 -672h4l402 672h-162l29 131h446l-28 -131h-105l-498 -803h-221l-143 803h-113z" />
<glyph unicode="w" horiz-adv-x="1820" d="M102 803l29 131h440l-26 -131h-158l76 -672h4l428 803h229l74 -803h4l363 672h-158l29 131h465l-29 -131h-125l-467 -803h-215l-78 791h-4l-428 -791h-215l-117 803h-121z" />
<glyph unicode="x" d="M-61 0l28 131h119l401 356l-235 316h-117l29 131h428l-29 -131h-141l176 -234l270 234h-155l28 131h455l-27 -131h-104l-391 -332l254 -340h114l-28 -131h-432l26 131h154l-199 260l-295 -260h166l-28 -131h-467z" />
<glyph unicode="y" d="M-12 -330l30 133q80 -31 154 -30q92 0 158 102l78 125l-193 803h-106l28 131h436l-28 -131h-160l139 -637l391 637h-159l28 131h435l-29 -131h-88l-629 -973q-119 -188 -276 -188q-105 -1 -209 28z" />
<glyph unicode="z" horiz-adv-x="1024" d="M-2 0l31 152l733 651h-434l-39 -185h-146l66 316h799l-31 -148l-739 -655h467l45 211h149l-72 -342h-829z" />
<glyph unicode="{" horiz-adv-x="681" d="M61 545l31 143q68 2 134.5 61.5t86.5 155.5l64 303q27 127 112 203q63 68 216 68h118l-28 -144h-109q-121 0 -154 -164l-61 -294q-25 -123 -94.5 -184.5t-130.5 -74.5v-4q131 -25 131 -170q0 -51 -10 -98l-66 -276q-16 -74 -16 -101q10 -43 37 -58q23 -14 69 -14 q6 0 12 1h95l-31 -144h-119q-227 0 -227 193q0 43 8 78l61 292q6 35 7 64q0 74 -40.5 118t-95.5 46z" />
<glyph unicode="|" horiz-adv-x="454" d="M190 -20v1380h156v-1380h-156z" />
<glyph unicode="}" horiz-adv-x="681" d="M-76 -246l29 144h108q121 0 154 163l61 295q25 123 94.5 184.5t131.5 73.5v4q-131 25 -131 170q0 51 10 99l65 276q16 74 17 101q-10 43 -37 58q-23 14 -69 14q-6 0 -13 -1h-94l31 144h118q227 0 228 -193q0 -43 -9 -78l-61 -293q-6 -35 -6 -63q0 -74 40 -118t95 -46 l-31 -143q-68 -2 -134 -61.5t-87 -155.5l-63 -303q-27 -127 -113 -203q-66 -68 -215 -68h-119z" />
<glyph unicode="~" horiz-adv-x="1228" d="M141 483q92 176 256 176q80 0 228 -65l44 -20l47 -20l41 -16q24 -9 42 -13.5t35 -4.5q39 0 74.5 24.5t55 50.5t50.5 73l73 -115q-41 -55 -67.5 -86t-77.5 -60.5t-111 -29.5q-86 0 -208 67q-127 72 -236 72q-104 0 -172 -147z" />
<glyph unicode="&#xa1;" horiz-adv-x="796" d="M131 -338l268 1020h125l-184 -1020h-209zM389 809l43 192h199l-45 -192h-197z" />
<glyph unicode="&#xa2;" d="M150 401q0 240 140 395.5t376 157.5l30 150h97l-33 -154q139 -23 207 -110l20 94h141l-77 -352h-148q8 31 8 61q0 160 -180 180l-153 -712q96 4 170.5 59t89.5 147h166q-59 -338 -455 -337l-35 -156h-94l37 166q-147 27 -227 141t-80 270zM330 387q0 -221 157 -260 l150 696q-104 -12 -176 -80.5t-101.5 -159t-29.5 -196.5z" />
<glyph unicode="&#xa3;" d="M-2 0l27 131h161l113 526h-178l26 131h177l53 250q68 322 422 322q193 0 282.5 -87t89.5 -276h-180q0 125 -42 178.5t-163 53.5q-115 0 -170 -68.5t-81 -195.5l-37 -177h270l-27 -131h-272l-111 -526h449l41 201h162l-70 -332h-942z" />
<glyph unicode="&#xa4;" d="M98 248l115 114q-106 133 -107 308q0 176 107 309l-115 115l95 94l114 -115q137 104 307 105q172 0 306 -105l118 115l95 -94l-117 -115q106 -133 106 -309q0 -172 -104 -305l115 -113l-95 -94l-114 112q-131 -109 -310 -108q-174 0 -307 106l-114 -114zM262 669.5 q0 -161.5 101.5 -263t251 -101.5t251 101.5t101.5 263t-101.5 263t-251 101.5t-251 -101.5t-101.5 -263z" />
<glyph unicode="&#xa5;" d="M117 1208l28 131h445l-29 -131h-166l185 -510l362 510h-178l29 131h483l-27 -131h-127l-391 -522h219l-26 -106h-269l-30 -158h274l-27 -107h-268l-37 -184h185l-29 -131h-543l29 131h176l37 184h-270l26 107h266l29 141l-6 17h-264l26 106h197l-197 522h-112z" />
<glyph unicode="&#xa6;" horiz-adv-x="454" d="M190 -20v571h156v-571h-156zM190 788v572h156v-572h-156z" />
<glyph unicode="&#xa7;" d="M94 133h168q4 -121 51 -175t160 -54q233 0 234 176q0 66 -43 107.5t-127 78.5q-8 4 -94.5 41t-123.5 60q-139 82 -139 206q0 100 69.5 166t176.5 90q-47 35 -75.5 97.5t-28.5 122.5q0 143 114.5 227t280.5 84q182 0 265 -98.5t87 -288.5h-168q-4 119 -43 187.5t-143 68.5 q-213 0 -213 -187q0 -55 34.5 -93t108.5 -68q6 -2 98.5 -42t135.5 -67q135 -82 135 -217q0 -106 -66.5 -160.5t-181.5 -79.5q121 -80 121 -237q0 -164 -122 -234.5t-302 -70.5q-184 0 -275.5 88t-93.5 272zM360 582q0 -68 146 -138l85 -34q56 -23 68 -29q66 8 120.5 49 t54.5 105q0 76 -105 135q-35 18 -105.5 46.5t-95.5 43.5q-35 -12 -56 -22.5t-51 -32t-45.5 -52t-15.5 -71.5z" />
<glyph unicode="&#xa8;" horiz-adv-x="569" d="M143 1135l41 204h181l-41 -204h-181zM539 1135l41 204h180l-43 -204h-178z" />
<glyph unicode="&#xa9;" horiz-adv-x="1638" d="M129 669.5q0 284.5 201.5 487.5t488.5 203t488.5 -203t201.5 -487.5t-201.5 -487t-488.5 -202.5t-488.5 202.5t-201.5 487zM272 670q0 -248 153 -410t394.5 -162t394 162t152.5 410t-152.5 409.5t-394 161.5t-394.5 -161.5t-153 -409.5zM428 672q0 188 110.5 307 t297.5 119q137 0 234 -76t116 -213h-125q-16 76 -76.5 123t-146.5 47q-125 0 -196 -86t-71 -219q0 -129 74 -220.5t197 -91.5q88 0 147.5 49.5t71.5 129.5h127q-27 -137 -121 -217t-225 -80q-184 0 -299 122t-115 306z" />
<glyph unicode="&#xaa;" horiz-adv-x="739" d="M170 950q0 63 38 103.5t109.5 56.5t130 21.5t142.5 5.5h59q10 51 10 75q0 57 -135 58q-145 0 -151 -76h-121q12 86 89 126t185 40q98 0 175 -32t77 -105q0 -31 -18 -123l-47 -228h96l-18 -77h-205l20 102h-4q-53 -115 -211 -115q-96 0 -158.5 41t-62.5 127zM289 948 q0 -76 108 -76q184 0 236 187h-43q-72 0 -116 -3t-92 -13.5t-70.5 -34t-22.5 -60.5z" />
<glyph unicode="&#xab;" d="M236 471l260 406h153l-260 -406l78 -405h-154zM606 471l260 406h154l-260 -406l78 -405h-154z" />
<glyph unicode="&#xac;" horiz-adv-x="1228" d="M96 649v156h1037v-586h-156v430h-881z" />
<glyph unicode="&#xad;" horiz-adv-x="681" d="M123 473l35 156h460l-34 -156h-461z" />
<glyph unicode="&#xae;" horiz-adv-x="1638" d="M129 669.5q0 284.5 201.5 487.5t488.5 203t488.5 -203t201.5 -487.5t-201.5 -487t-488.5 -202.5t-488.5 202.5t-201.5 487zM272 670q0 -248 153 -410t394.5 -162t394 162t152.5 410t-152.5 409.5t-394 161.5t-394.5 -161.5t-153 -409.5zM551 266v805h305q147 0 215 -55 t68 -174q0 -111 -49.5 -160t-157.5 -66l229 -350h-137l-215 346h-139v-346h-119zM670 719h147q104 0 153.5 23.5t49.5 107.5q0 115 -160 115h-22h-168v-246z" />
<glyph unicode="&#xaf;" horiz-adv-x="569" d="M156 1155l24 119h551l-22 -119h-553z" />
<glyph unicode="&#xb0;" horiz-adv-x="819" d="M199 1057q0 131 86 217t217 86t217 -86t86 -217t-86 -217t-217 -86t-217 86t-86 217zM305 1057q0 -82 57.5 -139.5t139.5 -57.5t139 57.5t57 139.5t-57 139t-139 57t-139.5 -57t-57.5 -139z" />
<glyph unicode="&#xb1;" horiz-adv-x="1228" d="M96 0v156h1037v-156h-1037zM96 553v156h441v327h155v-327h441v-156h-441v-328h-155v328h-441z" />
<glyph unicode="&#xb2;" horiz-adv-x="739" d="M80 543l26 125q315 225 371 274q121 121 127 219q0 35 -28.5 57.5t-73.5 22.5q-76 0 -114 -30.5t-54 -106.5h-133q33 256 315 256q244 0 244 -201q0 -66 -35 -129t-78 -108t-126 -101.5t-133 -85.5l-146 -82v-4h344l26 105h115l-47 -211h-600z" />
<glyph unicode="&#xb3;" horiz-adv-x="739" d="M115 770h131q0 -121 149 -121q76 0 123 37t47 107q0 51 -27.5 77.5t-56 30.5t-78.5 4l17 90q53 0 84 3t68.5 16.5t55 45.5t17.5 83q0 47 -44 72.5t-101 25.5q-63 0 -103.5 -32.5t-48.5 -92.5h-135q16 123 98 183.5t211 60.5q115 0 197 -52.5t82 -158.5 q0 -98 -67.5 -150.5t-174.5 -52.5v-4q80 0 121 -49t41 -129q0 -113 -100.5 -173.5t-223.5 -60.5q-272 0 -282 240z" />
<glyph unicode="&#xb4;" horiz-adv-x="569" d="M254 1065l192 295h230l-277 -295h-145z" />
<glyph unicode="&#xb5;" horiz-adv-x="1251" d="M41 -338l233 1141h-155l20 131h336l-108 -535q-27 -123 -27 -145q0 -68 42 -105.5t116 -37.5q260 0 327 292l90 400h-174l29 131h342l-170 -803h154l-27 -131h-311l37 154h-4q-53 -80 -140.5 -127t-185.5 -47q-133 8 -178 77l-78 -395h-168z" />
<glyph unicode="&#xb6;" horiz-adv-x="1228" d="M147 1024q41 176 201 262q49 25 120 37t121 14t146 2h533l-330 -1585h-156l299 1442h-260l-299 -1442h-155l174 838q-229 0 -332 110q-73 79 -73 210q-1 52 11 112z" />
<glyph unicode="&#xb7;" horiz-adv-x="569" d="M186 567.5q0 59.5 40 99.5t99.5 40t99.5 -40t40 -99.5t-40 -99.5t-99.5 -40t-99.5 40t-40 99.5z" />
<glyph unicode="&#xb8;" horiz-adv-x="569" d="M6 -395l37 63q109 -31 133 -30q117 0 117 86q0 41 -24.5 62t-63.5 21q-57 4 -86 -16l-33 41l154 184h88l-119 -135l4 -4q29 8 53 8q76 0 129.5 -36.5t53.5 -110.5q0 -86 -74 -132t-166 -46q-101 0 -203 45z" />
<glyph unicode="&#xb9;" horiz-adv-x="739" d="M201 543l22 106h129l117 557h-4q-74 -76 -217 -110l24 125q123 23 240 127h127l-147 -699h116l-22 -106h-385z" />
<glyph unicode="&#xba;" horiz-adv-x="739" d="M178 1016q0 150 108.5 247t256.5 97q129 0 202.5 -60.5t73.5 -173.5q0 -150 -108.5 -247t-255.5 -97q-129 0 -203 60.5t-74 173.5zM309 1010q0 -137 154 -138q104 0 164.5 75t60.5 186q0 137 -153 137q-104 0 -165 -74.5t-61 -185.5z" />
<glyph unicode="&#xbb;" d="M133 66l260 405l-78 406h154l78 -406l-260 -405h-154zM504 66l260 405l-78 406h154l78 -406l-261 -405h-153z" />
<glyph unicode="&#xbc;" horiz-adv-x="1708" d="M172 543l23 106h129l116 557h-4q-74 -76 -217 -110l25 125q123 23 239 127h127l-147 -699h117l-23 -106h-385zM383 -37l793 1413h114l-790 -1413h-117zM848 203l31 137l469 467h190l-104 -498h131l-23 -106h-131l-20 -97h106l-24 -106h-359l23 106h116l21 97h-426z M981 309h313l84 379h-8z" />
<glyph unicode="&#xbd;" horiz-adv-x="1708" d="M172 543l23 106h129l116 557h-4q-74 -76 -217 -110l25 125q123 23 239 127h127l-147 -699h117l-23 -106h-385zM391 -37l793 1413h114l-790 -1413h-117zM870 0l27 125q315 225 371 274q121 121 127 219q0 35 -29 57.5t-74 22.5q-76 0 -113.5 -30.5t-54.5 -106.5h-133 q33 256 316 256q244 0 243 -201q0 -66 -34.5 -129t-77.5 -108t-126 -101.5t-133 -84.5l-147 -82v-5h344l27 105h115l-48 -211h-600z" />
<glyph unicode="&#xbe;" horiz-adv-x="1708" d="M53 770h131q0 -121 150 -121q76 0 123 37t47 107q0 51 -27.5 77.5t-56.5 30.5t-78 4l16 90q53 0 84 3t69 16.5t55.5 45.5t17.5 83q0 47 -44 72.5t-102 25.5q-63 0 -103 -32.5t-48 -92.5h-135q16 123 98 183.5t211 60.5q115 0 196.5 -52.5t81.5 -158.5q0 -98 -67.5 -150.5 t-173.5 -52.5v-4q80 0 120.5 -49t40.5 -129q0 -113 -100 -173.5t-223 -60.5q-273 0 -283 240zM383 -37l793 1413h114l-790 -1413h-117zM846 203l31 137l469 467h190l-104 -498h131l-23 -106h-131l-20 -97h106l-25 -106h-358l23 106h116l21 97h-426zM979 309h313l84 379h-8z " />
<glyph unicode="&#xbf;" horiz-adv-x="1024" d="M16 2q0 143 62.5 226t197.5 151q16 8 56.5 25.5t68 32t52.5 32.5q68 49 88 213h174q-31 -199 -97 -270q-27 -29 -66.5 -54.5t-113 -62.5t-106.5 -55q-135 -84 -135 -222q0 -121 58 -177t181 -56q119 0 173.5 58.5t74.5 181.5h172q-33 -201 -137.5 -292t-306.5 -91 q-178 0 -287 92t-109 268zM545 809l43 192h198l-45 -192h-196z" />
<glyph unicode="&#xc0;" horiz-adv-x="1593" d="M-59 0l28 131h109l801 1208h215l272 -1208h129l-29 -131h-501l28 131h183l-66 311h-623l-202 -311h192l-28 -131h-508zM573 573h512l-127 588zM776 1729h230l192 -295h-145z" />
<glyph unicode="&#xc1;" horiz-adv-x="1593" d="M-59 0l28 131h109l801 1208h215l272 -1208h129l-29 -131h-501l28 131h183l-66 311h-623l-202 -311h192l-28 -131h-508zM573 573h512l-127 588zM858 1434l193 295h229l-276 -295h-146z" />
<glyph unicode="&#xc2;" horiz-adv-x="1593" d="M-59 0l28 131h109l801 1208h215l272 -1208h129l-29 -131h-501l28 131h183l-66 311h-623l-202 -311h192l-28 -131h-508zM573 573h512l-127 588zM721 1434l272 295h174l154 -295h-152l-104 198l-176 -198h-168z" />
<glyph unicode="&#xc3;" horiz-adv-x="1593" d="M-59 0l28 131h109l801 1208h215l272 -1208h129l-29 -131h-501l28 131h183l-66 311h-623l-202 -311h192l-28 -131h-508zM573 573h512l-127 588zM698 1481q14 109 59.5 168t147.5 59q80 -4 166 -57q79 -47 116 -47h3q39 0 67.5 28.5t32.5 67.5h107q-14 -106 -59.5 -166.5 t-145.5 -60.5q-80 4 -166 57q-78 47 -119 47t-69.5 -28.5t-32.5 -67.5h-107z" />
<glyph unicode="&#xc4;" horiz-adv-x="1593" d="M-59 0l28 131h109l801 1208h215l272 -1208h129l-29 -131h-501l28 131h183l-66 311h-623l-202 -311h192l-28 -131h-508zM573 573h512l-127 588zM715 1503l41 205h180l-41 -205h-180zM1110 1503l41 205h180l-43 -205h-178z" />
<glyph unicode="&#xc5;" horiz-adv-x="1593" d="M-59 0l28 131h109l801 1208h215l272 -1208h129l-29 -131h-501l28 131h183l-66 311h-623l-202 -311h192l-28 -131h-508zM573 573h512l-127 588zM842 1583q0 84 62.5 146.5t146.5 62.5t146.5 -62.5t62.5 -146.5q0 -86 -61.5 -147.5t-147.5 -61.5q-84 0 -146.5 62.5 t-62.5 146.5zM932 1583q0 -49 34.5 -84t84 -35t84 35t34.5 84t-34.5 84t-84 35t-84 -35t-34.5 -84z" />
<glyph unicode="&#xc6;" horiz-adv-x="1857" d="M-78 0l29 131h76l862 1208h1036l-86 -397h-156l60 266h-565l-74 -467h233l43 195h152l-117 -533h-151l45 207h-230l-75 -479h528l63 283h156l-84 -414h-1051l29 131h184l50 311h-441l-221 -311h201l-29 -131h-467zM530 573h369l107 660h-5z" />
<glyph unicode="&#xc7;" horiz-adv-x="1478" d="M160 551q0 340 199.5 574.5t541.5 234.5q145 0 257 -55.5t163 -159.5h4l41 194h170l-106 -505h-170q2 14 2 88q0 145 -113 226t-264 81q-168 0 -293 -105.5t-181.5 -257t-56.5 -321.5q0 -434 379 -434q178 0 283.5 85t154.5 261h199q-123 -477 -641 -477 q-279 0 -424 147.5t-145 423.5zM461 -395l37 63q109 -31 133 -30q117 0 117 86q0 41 -25 62t-64 21q-10 1 -18 1q-44 0 -68 -17l-32 41l153 184h88l-118 -135l4 -4q29 8 53 8q76 0 129 -36.5t53 -110.5q0 -86 -73.5 -132t-165.5 -46q-101 0 -203 45z" />
<glyph unicode="&#xc8;" horiz-adv-x="1366" d="M4 0l25 131h178l227 1077h-182l24 131h1141l-88 -401h-166l60 270h-605l-96 -467h299l41 195h156l-113 -522h-155l41 196h-297l-103 -479h621l61 283h166l-90 -414h-1145zM627 1729h229l193 -295h-146z" />
<glyph unicode="&#xc9;" horiz-adv-x="1366" d="M4 0l25 131h178l227 1077h-182l24 131h1141l-88 -401h-166l60 270h-605l-96 -467h299l41 195h156l-113 -522h-155l41 196h-297l-103 -479h621l61 283h166l-90 -414h-1145zM709 1434l192 295h229l-276 -295h-145z" />
<glyph unicode="&#xca;" horiz-adv-x="1366" d="M4 0l25 131h178l227 1077h-182l24 131h1141l-88 -401h-166l60 270h-605l-96 -467h299l41 195h156l-113 -522h-155l41 196h-297l-103 -479h621l61 283h166l-90 -414h-1145zM551 1434l272 295h174l154 -295h-152l-104 198l-176 -198h-168z" />
<glyph unicode="&#xcb;" horiz-adv-x="1366" d="M4 0l25 131h178l227 1077h-182l24 131h1141l-88 -401h-166l60 270h-605l-96 -467h299l41 195h156l-113 -522h-155l41 196h-297l-103 -479h621l61 283h166l-90 -414h-1145zM565 1503l41 205h180l-41 -205h-180zM961 1503l40 205h181l-43 -205h-178z" />
<glyph unicode="&#xcc;" horiz-adv-x="681" d="M0 0l27 131h176l223 1077h-178l22 131h535l-27 -131h-168l-223 -1077h178l-26 -131h-539zM322 1729h229l192 -295h-145z" />
<glyph unicode="&#xcd;" horiz-adv-x="681" d="M0 0l27 131h176l223 1077h-178l22 131h535l-27 -131h-168l-223 -1077h178l-26 -131h-539zM403 1434l193 295h229l-276 -295h-146z" />
<glyph unicode="&#xce;" horiz-adv-x="681" d="M0 0l27 131h176l223 1077h-178l22 131h535l-27 -131h-168l-223 -1077h178l-26 -131h-539zM246 1434l272 295h174l154 -295h-152l-104 198l-176 -198h-168z" />
<glyph unicode="&#xcf;" horiz-adv-x="681" d="M0 0l27 131h176l223 1077h-178l22 131h535l-27 -131h-168l-223 -1077h178l-26 -131h-539zM260 1503l41 205h180l-41 -205h-180zM655 1503l41 205h181l-43 -205h-179z" />
<glyph unicode="&#xd0;" horiz-adv-x="1478" d="M-8 0l26 131h175l108 502h-182l28 131h183l96 444h-186l26 131h623q260 0 403.5 -145t143.5 -422q0 -84 -16.5 -172t-66.5 -199.5t-131 -197.5t-225.5 -144.5t-332.5 -58.5h-672zM379 131h217q315 0 480 166t165 494q0 418 -389 417h-244l-94 -444h326l-29 -131h-324z " />
<glyph unicode="&#xd1;" horiz-adv-x="1593" d="M4 0l27 131h174l225 1077h-174l27 131h450l400 -1144h4l211 1013h-191l27 131h534l-26 -131h-172l-252 -1208h-254l-418 1171h-4l-217 -1040h188l-26 -131h-533zM698 1481q14 109 59.5 168t147.5 59q80 -4 166 -57q79 -47 116 -47h3q39 0 67.5 28.5t32.5 67.5h107 q-14 -106 -59.5 -166.5t-145.5 -60.5q-80 4 -166 57q-78 47 -119 47t-69.5 -28.5t-32.5 -67.5h-107z" />
<glyph unicode="&#xd2;" horiz-adv-x="1593" d="M166 551q0 344 209 576.5t551 232.5q281 0 436.5 -151.5t155.5 -420.5q0 -344 -209 -576t-551 -232q-281 0 -436.5 151.5t-155.5 419.5zM360 526q0 -203 104.5 -309t295.5 -106q260 0 411.5 209.5t151.5 492.5q0 203 -104.5 309.5t-294.5 106.5q-260 0 -412 -210 t-152 -493zM776 1729h230l192 -295h-145z" />
<glyph unicode="&#xd3;" horiz-adv-x="1593" d="M166 551q0 344 209 576.5t551 232.5q281 0 436.5 -151.5t155.5 -420.5q0 -344 -209 -576t-551 -232q-281 0 -436.5 151.5t-155.5 419.5zM360 526q0 -203 104.5 -309t295.5 -106q260 0 411.5 209.5t151.5 492.5q0 203 -104.5 309.5t-294.5 106.5q-260 0 -412 -210 t-152 -493zM858 1434l193 295h229l-276 -295h-146z" />
<glyph unicode="&#xd4;" horiz-adv-x="1593" d="M166 551q0 344 209 576.5t551 232.5q281 0 436.5 -151.5t155.5 -420.5q0 -344 -209 -576t-551 -232q-281 0 -436.5 151.5t-155.5 419.5zM360 526q0 -203 104.5 -309t295.5 -106q260 0 411.5 209.5t151.5 492.5q0 203 -104.5 309.5t-294.5 106.5q-260 0 -412 -210 t-152 -493zM700 1434l273 295h174l153 -295h-151l-105 198l-176 -198h-168z" />
<glyph unicode="&#xd5;" horiz-adv-x="1593" d="M166 551q0 344 209 576.5t551 232.5q281 0 436.5 -151.5t155.5 -420.5q0 -344 -209 -576t-551 -232q-281 0 -436.5 151.5t-155.5 419.5zM360 526q0 -203 104.5 -309t295.5 -106q260 0 411.5 209.5t151.5 492.5q0 203 -104.5 309.5t-294.5 106.5q-260 0 -412 -210 t-152 -493zM698 1481q14 109 59.5 168t147.5 59q80 -4 166 -57q79 -47 116 -47h3q39 0 67.5 28.5t32.5 67.5h107q-14 -106 -59.5 -166.5t-145.5 -60.5q-80 4 -166 57q-78 47 -119 47t-69.5 -28.5t-32.5 -67.5h-107z" />
<glyph unicode="&#xd6;" horiz-adv-x="1593" d="M166 551q0 344 209 576.5t551 232.5q281 0 436.5 -151.5t155.5 -420.5q0 -344 -209 -576t-551 -232q-281 0 -436.5 151.5t-155.5 419.5zM360 526q0 -203 104.5 -309t295.5 -106q260 0 411.5 209.5t151.5 492.5q0 203 -104.5 309.5t-294.5 106.5q-260 0 -412 -210 t-152 -493zM715 1503l41 205h180l-41 -205h-180zM1110 1503l41 205h180l-43 -205h-178z" />
<glyph unicode="&#xd7;" horiz-adv-x="1228" d="M145 154l365 364l-365 365l105 104l362 -364l367 364l104 -104l-366 -365l366 -364l-104 -105l-367 367l-362 -367z" />
<glyph unicode="&#xd8;" horiz-adv-x="1593" d="M147 20l142 148q-123 145 -123 383q0 344 209 576.5t551 232.5q246 0 399 -119l127 131l72 -69l-127 -134q121 -145 121 -381q0 -344 -209 -576t-551 -232q-244 0 -398 118l-141 -147zM360 526q0 -141 52 -231l802 831q-106 102 -290 103q-260 0 -412 -210t-152 -493z M471 213q102 -102 289 -102q260 0 411.5 209.5t151.5 492.5q0 141 -49 229z" />
<glyph unicode="&#xd9;" horiz-adv-x="1478" d="M195 1208l26 131h533l-27 -131h-172l-152 -698q-18 -84 -18 -154q0 -102 92 -173.5t201 -71.5q209 0 293 78.5t131 291.5l158 727h-183l25 131h524l-27 -131h-163l-179 -798q-55 -242 -183 -336t-392 -94q-184 0 -330.5 106.5t-146.5 253.5q0 102 22 219l135 649h-167z M719 1729h229l193 -295h-146z" />
<glyph unicode="&#xda;" horiz-adv-x="1478" d="M195 1208l26 131h533l-27 -131h-172l-152 -698q-18 -84 -18 -154q0 -102 92 -173.5t201 -71.5q209 0 293 78.5t131 291.5l158 727h-183l25 131h524l-27 -131h-163l-179 -798q-55 -242 -183 -336t-392 -94q-184 0 -330.5 106.5t-146.5 253.5q0 102 22 219l135 649h-167z M801 1434l192 295h230l-277 -295h-145z" />
<glyph unicode="&#xdb;" horiz-adv-x="1478" d="M195 1208l26 131h533l-27 -131h-172l-152 -698q-18 -84 -18 -154q0 -102 92 -173.5t201 -71.5q209 0 293 78.5t131 291.5l158 727h-183l25 131h524l-27 -131h-163l-179 -798q-55 -242 -183 -336t-392 -94q-184 0 -330.5 106.5t-146.5 253.5q0 102 22 219l135 649h-167z M643 1434l272 295h175l153 -295h-151l-105 198l-176 -198h-168z" />
<glyph unicode="&#xdc;" horiz-adv-x="1478" d="M195 1208l26 131h533l-27 -131h-172l-152 -698q-18 -84 -18 -154q0 -102 92 -173.5t201 -71.5q209 0 293 78.5t131 291.5l158 727h-183l25 131h524l-27 -131h-163l-179 -798q-55 -242 -183 -336t-392 -94q-184 0 -330.5 106.5t-146.5 253.5q0 102 22 219l135 649h-167z M657 1503l41 205h181l-41 -205h-181zM1053 1503l41 205h180l-43 -205h-178z" />
<glyph unicode="&#xdd;" horiz-adv-x="1366" d="M199 1208l28 131h486l-29 -131h-182l231 -510l461 510h-195l29 131h514l-26 -131h-121l-596 -665l-88 -412h194l-28 -131h-574l29 131h196l88 412l-311 665h-106zM745 1434l193 295h229l-276 -295h-146z" />
<glyph unicode="&#xde;" horiz-adv-x="1288" d="M0 0l27 131h170l231 1077h-180l28 131h549l-30 -131h-185l-28 -135h137q63 0 99 -1t99.5 -7t101.5 -19.5t87 -39t74.5 -62.5t45 -94t19.5 -131q0 -223 -148.5 -335t-367.5 -112h-315l-31 -141h190l-24 -131h-549zM442 403h256q160 0 263.5 80t103.5 232q0 63 -23.5 107 t-55.5 67.5t-87 36t-96 14.5t-105 2h-147z" />
<glyph unicode="&#xdf;" d="M-49 0l26 131h146l145 690q16 80 26.5 124t32 109.5t43 102.5t56.5 81t78 67.5t103.5 39t133.5 15.5q168 0 276.5 -78t108.5 -227q0 -139 -101 -225.5t-253 -90.5v-6q133 -6 214 -97t81 -243q0 -174 -130 -283.5t-337 -109.5q-72 0 -92 4l29 129q14 2 39.5 0t31.5 -2 q106 0 192.5 77t86.5 226q0 129 -81 177t-218 48l28 132q129 0 229.5 70.5t100.5 193.5q0 80 -54 127t-144 47q-121 0 -180.5 -64.5t-86.5 -181.5l-186 -852h125l-27 -131h-442z" />
<glyph unicode="&#xe0;" d="M63 258q0 186 159 248.5t507 62.5h64q18 78 18 127q-8 127 -213 127q-94 0 -163.5 -41t-76.5 -116h-174q41 289 418 288q68 0 128.5 -10t119.5 -34.5t94 -74t35 -116.5q0 -74 -18 -160l-93 -428h168l-28 -131h-316l37 172h-4q-88 -193 -330 -192q-150 0 -241 66.5 t-91 211.5zM231 256q0 -70 49.5 -107.5t122.5 -37.5q287 0 365 327h-55q-268 0 -375 -46t-107 -136zM457 1360h229l193 -295h-146z" />
<glyph unicode="&#xe1;" d="M63 258q0 186 159 248.5t507 62.5h64q18 78 18 127q-8 127 -213 127q-94 0 -163.5 -41t-76.5 -116h-174q41 289 418 288q68 0 128.5 -10t119.5 -34.5t94 -74t35 -116.5q0 -74 -18 -160l-93 -428h168l-28 -131h-316l37 172h-4q-88 -193 -330 -192q-150 0 -241 66.5 t-91 211.5zM231 256q0 -70 49.5 -107.5t122.5 -37.5q287 0 365 327h-55q-268 0 -375 -46t-107 -136zM539 1065l192 295h230l-277 -295h-145z" />
<glyph unicode="&#xe2;" d="M63 258q0 186 159 248.5t507 62.5h64q18 78 18 127q-8 127 -213 127q-94 0 -163.5 -41t-76.5 -116h-174q41 289 418 288q68 0 128.5 -10t119.5 -34.5t94 -74t35 -116.5q0 -74 -18 -160l-93 -428h168l-28 -131h-316l37 172h-4q-88 -193 -330 -192q-150 0 -241 66.5 t-91 211.5zM231 256q0 -70 49.5 -107.5t122.5 -37.5q287 0 365 327h-55q-268 0 -375 -46t-107 -136zM332 1065l272 295h174l154 -295h-152l-104 199l-176 -199h-168z" />
<glyph unicode="&#xe3;" d="M63 258q0 186 159 248.5t507 62.5h64q18 78 18 127q-8 127 -213 127q-94 0 -163.5 -41t-76.5 -116h-174q41 289 418 288q68 0 128.5 -10t119.5 -34.5t94 -74t35 -116.5q0 -74 -18 -160l-93 -428h168l-28 -131h-316l37 172h-4q-88 -193 -330 -192q-150 0 -241 66.5 t-91 211.5zM231 256q0 -70 49.5 -107.5t122.5 -37.5q287 0 365 327h-55q-268 0 -375 -46t-107 -136zM346 1112q14 109 59.5 168t147.5 59q80 -4 166 -57q79 -47 116 -47h3q39 0 67.5 28.5t32.5 67.5h106q-14 -106 -59 -166.5t-145 -60.5q-80 4 -166 57q-78 47 -119 47 t-69.5 -28.5t-32.5 -67.5h-107z" />
<glyph unicode="&#xe4;" d="M63 258q0 186 159 248.5t507 62.5h64q18 78 18 127q-8 127 -213 127q-94 0 -163.5 -41t-76.5 -116h-174q41 289 418 288q68 0 128.5 -10t119.5 -34.5t94 -74t35 -116.5q0 -74 -18 -160l-93 -428h168l-28 -131h-316l37 172h-4q-88 -193 -330 -192q-150 0 -241 66.5 t-91 211.5zM231 256q0 -70 49.5 -107.5t122.5 -37.5q287 0 365 327h-55q-268 0 -375 -46t-107 -136zM428 1135l41 204h180l-41 -204h-180zM823 1135l41 204h180l-43 -204h-178z" />
<glyph unicode="&#xe5;" d="M63 258q0 186 159 248.5t507 62.5h64q18 78 18 127q-8 127 -213 127q-94 0 -163.5 -41t-76.5 -116h-174q41 289 418 288q68 0 128.5 -10t119.5 -34.5t94 -74t35 -116.5q0 -74 -18 -160l-93 -428h168l-28 -131h-316l37 172h-4q-88 -193 -330 -192q-150 0 -241 66.5 t-91 211.5zM231 256q0 -70 49.5 -107.5t122.5 -37.5q287 0 365 327h-55q-268 0 -375 -46t-107 -136zM522 1214q0 84 62.5 146.5t146.5 62.5t146.5 -62.5t62.5 -146.5q0 -86 -61.5 -147t-147.5 -61q-84 0 -146.5 62t-62.5 146zM612 1214.5q0 -49.5 35 -84t84 -34.5t84 34.5 t35 84t-35 84t-84 34.5t-84 -34.5t-35 -84z" />
<glyph unicode="&#xe6;" horiz-adv-x="1593" d="M35 244q0 184 129 245.5t471 61.5h82q4 57 4 88q0 86 -39 135t-145 49q-82 0 -142.5 -41t-79.5 -118h-168q43 291 400 290q246 0 299 -159q94 154 340 159q182 0 275 -90t93 -260q0 -80 -30 -184h-670q-8 -33 -8 -74q2 -98 59.5 -166.5t163.5 -68.5q221 0 262 184h156 q-29 -152 -137.5 -233.5t-264.5 -81.5q-137 0 -224 47t-134 166q-53 -104 -151.5 -158.5t-217.5 -54.5q-84 2 -151.5 23.5t-119.5 84t-52 156.5zM203 256q0 -68 52 -106.5t126 -38.5q143 0 223 85t98 224h-86q-238 0 -325.5 -32t-87.5 -132zM866 551h514q6 27 6 57 q0 94 -54 154.5t-161 60.5q-119 0 -203 -79.5t-102 -192.5z" />
<glyph unicode="&#xe7;" horiz-adv-x="1024" d="M92 401q0 248 142.5 400.5t386.5 152.5q195 0 288 -114l21 94h141l-78 -352h-147q9 29 9 58q0 10 -1 19q-10 164 -229 164q-176 0 -264.5 -125t-88.5 -311q0 -131 68 -203.5t195 -72.5q88 0 159.5 59t85.5 147h166q-29 -170 -143.5 -253.5t-292.5 -83.5 q-199 0 -308.5 109t-109.5 312zM233 -395l37 63q106 -31 133 -30q117 0 117 86q0 41 -24.5 62t-63.5 21q-10 1 -18 1q-44 0 -68 -17l-33 41l154 184h88l-119 -135l4 -4q29 8 54 8q76 0 129 -36.5t53 -110.5q0 -86 -74 -132t-166 -46q-101 0 -203 45z" />
<glyph unicode="&#xe8;" horiz-adv-x="1024" d="M72 373q0 242 135 411.5t366 169.5q408 0 408 -401q0 -43 -16 -133h-719q-6 -31 -6 -103q0 -96 57 -151t162 -55q246 0 299 184h166q-39 -152 -162 -233.5t-283 -81.5q-407 0 -407 393zM262 551h547q4 45 4 57q0 215 -225 215q-260 0 -326 -272zM399 1360h230l192 -295 h-145z" />
<glyph unicode="&#xe9;" horiz-adv-x="1024" d="M72 373q0 242 135 411.5t366 169.5q408 0 408 -401q0 -43 -16 -133h-719q-6 -31 -6 -103q0 -96 57 -151t162 -55q246 0 299 184h166q-39 -152 -162 -233.5t-283 -81.5q-407 0 -407 393zM262 551h547q4 45 4 57q0 215 -225 215q-260 0 -326 -272zM481 1065l193 295h229 l-276 -295h-146z" />
<glyph unicode="&#xea;" horiz-adv-x="1024" d="M72 373q0 242 135 411.5t366 169.5q408 0 408 -401q0 -43 -16 -133h-719q-6 -31 -6 -103q0 -96 57 -151t162 -55q246 0 299 184h166q-39 -152 -162 -233.5t-283 -81.5q-407 0 -407 393zM262 551h547q4 45 4 57q0 215 -225 215q-260 0 -326 -272zM274 1065l273 295h174 l153 -295h-151l-105 199l-176 -199h-168z" />
<glyph unicode="&#xeb;" horiz-adv-x="1024" d="M72 373q0 242 135 411.5t366 169.5q408 0 408 -401q0 -43 -16 -133h-719q-6 -31 -6 -103q0 -96 57 -151t162 -55q246 0 299 184h166q-39 -152 -162 -233.5t-283 -81.5q-407 0 -407 393zM262 551h547q4 45 4 57q0 215 -225 215q-260 0 -326 -272zM371 1135l41 204h180 l-41 -204h-180zM766 1135l41 204h180l-43 -204h-178z" />
<glyph unicode="&#xec;" horiz-adv-x="569" d="M-27 0l27 131h147l142 672h-158l27 131h331l-167 -803h147l-27 -131h-469zM172 1360h229l193 -295h-145z" />
<glyph unicode="&#xed;" horiz-adv-x="569" d="M-27 0l27 131h147l142 672h-158l27 131h331l-167 -803h147l-27 -131h-469zM254 1065l192 295h230l-277 -295h-145z" />
<glyph unicode="&#xee;" horiz-adv-x="569" d="M-27 0l27 131h147l142 672h-158l27 131h331l-167 -803h147l-27 -131h-469zM47 1065l272 295h175l153 -295h-151l-105 199l-176 -199h-168z" />
<glyph unicode="&#xef;" horiz-adv-x="569" d="M-27 0l27 131h147l142 672h-158l27 131h331l-167 -803h147l-27 -131h-469zM143 1135l41 204h181l-41 -204h-181zM539 1135l41 204h180l-43 -204h-178z" />
<glyph unicode="&#xf0;" d="M90 381q0 252 152.5 412.5t402.5 160.5q113 -6 207 -73q-14 129 -127 264l-217 -111l-62 82l211 107q-37 37 -120 96l81 86q96 -66 158 -123l215 109l62 -82l-203 -101q209 -235 209 -568v-26q0 -279 -157 -456.5t-398 -177.5q-205 0 -309.5 104t-104.5 297zM270 373 q0 -127 63.5 -194.5t186.5 -67.5q141 0 250 139t109 311q0 127 -63.5 194.5t-186.5 67.5q-166 0 -262.5 -136t-96.5 -314z" />
<glyph unicode="&#xf1;" horiz-adv-x="1251" d="M-20 0l26 131h152l139 672h-156l27 131h328l-31 -154h4q51 82 138 128t188 46q123 0 214 -60t91 -177q0 -78 -29 -207l-86 -379h148l-29 -131h-467l29 131h147l82 375q25 119 25 149q0 168 -175 168q-158 0 -235.5 -101t-112.5 -278l-67 -313h155l-28 -131h-477z M403 1112q14 109 59.5 168t147.5 59q80 -4 166 -57q79 -47 116 -47h3q39 0 67.5 28.5t32.5 67.5h107q-14 -106 -59.5 -166.5t-145.5 -60.5q-80 4 -166 57q-78 47 -119 47t-69.5 -28.5t-32.5 -67.5h-107z" />
<glyph unicode="&#xf2;" d="M90 381q0 252 152.5 412.5t402.5 160.5q207 0 310.5 -104.5t103.5 -296.5q0 -252 -152.5 -412.5t-402.5 -160.5q-205 0 -309.5 104t-104.5 297zM270 373q0 -127 63.5 -194.5t186.5 -67.5q166 0 262.5 136t96.5 314q0 127 -63.5 194.5t-186.5 67.5q-166 0 -262.5 -136 t-96.5 -314zM457 1360h229l193 -295h-146z" />
<glyph unicode="&#xf3;" d="M90 381q0 252 152.5 412.5t402.5 160.5q207 0 310.5 -104.5t103.5 -296.5q0 -252 -152.5 -412.5t-402.5 -160.5q-205 0 -309.5 104t-104.5 297zM270 373q0 -127 63.5 -194.5t186.5 -67.5q166 0 262.5 136t96.5 314q0 127 -63.5 194.5t-186.5 67.5q-166 0 -262.5 -136 t-96.5 -314zM539 1065l192 295h230l-277 -295h-145z" />
<glyph unicode="&#xf4;" d="M90 381q0 252 152.5 412.5t402.5 160.5q207 0 310.5 -104.5t103.5 -296.5q0 -252 -152.5 -412.5t-402.5 -160.5q-205 0 -309.5 104t-104.5 297zM270 373q0 -127 63.5 -194.5t186.5 -67.5q166 0 262.5 136t96.5 314q0 127 -63.5 194.5t-186.5 67.5q-166 0 -262.5 -136 t-96.5 -314zM332 1065l272 295h174l154 -295h-152l-104 199l-176 -199h-168z" />
<glyph unicode="&#xf5;" d="M90 381q0 252 152.5 412.5t402.5 160.5q207 0 310.5 -104.5t103.5 -296.5q0 -252 -152.5 -412.5t-402.5 -160.5q-205 0 -309.5 104t-104.5 297zM270 373q0 -127 63.5 -194.5t186.5 -67.5q166 0 262.5 136t96.5 314q0 127 -63.5 194.5t-186.5 67.5q-166 0 -262.5 -136 t-96.5 -314zM346 1112q14 109 59.5 168t147.5 59q80 -4 166 -57q79 -47 116 -47h3q39 0 67.5 28.5t32.5 67.5h106q-14 -106 -59 -166.5t-145 -60.5q-80 4 -166 57q-78 47 -119 47t-69.5 -28.5t-32.5 -67.5h-107z" />
<glyph unicode="&#xf6;" d="M90 381q0 252 152.5 412.5t402.5 160.5q207 0 310.5 -104.5t103.5 -296.5q0 -252 -152.5 -412.5t-402.5 -160.5q-205 0 -309.5 104t-104.5 297zM270 373q0 -127 63.5 -194.5t186.5 -67.5q166 0 262.5 136t96.5 314q0 127 -63.5 194.5t-186.5 67.5q-166 0 -262.5 -136 t-96.5 -314zM428 1135l41 204h180l-41 -204h-180zM823 1135l41 204h180l-43 -204h-178z" />
<glyph unicode="&#xf7;" horiz-adv-x="1228" d="M96 440v156h1037v-156h-1037zM475 942q0 57 42 98t97 41q57 0 98.5 -41t41.5 -98q0 -53 -41 -96t-97 -43q-57 0 -99 41t-42 98zM475 94.5q0 57.5 42 98t97 40.5q57 0 98.5 -40.5t41.5 -98.5q0 -53 -41 -96t-97 -43q-57 0 -99 41t-42 98.5z" />
<glyph unicode="&#xf8;" d="M74 0l102 106q-86 98 -86 275q0 252 152.5 412.5t402.5 160.5q166 0 264 -69l97 102l57 -55l-94 -98q90 -100 90 -281q0 -252 -152.5 -412.5t-402.5 -160.5q-168 0 -271 73l-102 -108zM270 373q0 -84 27 -137l504 532q-61 55 -172 55q-166 0 -262.5 -136t-96.5 -314z M344 170q61 -59 176 -59q166 0 262.5 136t96.5 314q0 86 -31 144z" />
<glyph unicode="&#xf9;" horiz-adv-x="1251" d="M119 803l20 131h336l-108 -535q-27 -123 -27 -145q0 -68 42 -105.5t116 -37.5q260 0 327 292l90 400h-174l29 131h342l-170 -803h154l-27 -131h-311l37 154h-4q-53 -80 -140.5 -127t-185.5 -47q-125 0 -215 60t-90 181q0 74 28 203l86 379h-155zM514 1360h229l193 -295 h-145z" />
<glyph unicode="&#xfa;" horiz-adv-x="1251" d="M119 803l20 131h336l-108 -535q-27 -123 -27 -145q0 -68 42 -105.5t116 -37.5q260 0 327 292l90 400h-174l29 131h342l-170 -803h154l-27 -131h-311l37 154h-4q-53 -80 -140.5 -127t-185.5 -47q-125 0 -215 60t-90 181q0 74 28 203l86 379h-155zM596 1065l192 295h230 l-277 -295h-145z" />
<glyph unicode="&#xfb;" horiz-adv-x="1251" d="M119 803l20 131h336l-108 -535q-27 -123 -27 -145q0 -68 42 -105.5t116 -37.5q260 0 327 292l90 400h-174l29 131h342l-170 -803h154l-27 -131h-311l37 154h-4q-53 -80 -140.5 -127t-185.5 -47q-125 0 -215 60t-90 181q0 74 28 203l86 379h-155zM389 1065l273 295h174 l153 -295h-151l-105 199l-176 -199h-168z" />
<glyph unicode="&#xfc;" horiz-adv-x="1251" d="M119 803l20 131h336l-108 -535q-27 -123 -27 -145q0 -68 42 -105.5t116 -37.5q260 0 327 292l90 400h-174l29 131h342l-170 -803h154l-27 -131h-311l37 154h-4q-53 -80 -140.5 -127t-185.5 -47q-125 0 -215 60t-90 181q0 74 28 203l86 379h-155zM485 1135l41 204h181 l-41 -204h-181zM881 1135l41 204h180l-43 -204h-178z" />
<glyph unicode="&#xfd;" d="M-12 -330l30 133q80 -31 154 -30q92 0 158 102l78 125l-193 803h-106l28 131h436l-28 -131h-160l139 -637l391 637h-159l28 131h435l-29 -131h-88l-629 -973q-119 -188 -276 -188q-105 -1 -209 28zM539 1065l192 295h230l-277 -295h-145z" />
<glyph unicode="&#xfe;" horiz-adv-x="1251" d="M-92 -338l29 131h143l309 1415h-153l26 131h330l-113 -520h4q123 135 299 135q182 0 288 -106.5t106 -292.5q0 -248 -132.5 -411.5t-367.5 -163.5q-113 0 -195 43t-145 143l-82 -373h168l-29 -131h-485zM401 397q0 -131 68 -208.5t190 -77.5q158 0 247 129t89 299 q0 135 -69.5 209.5t-200.5 74.5q-113 0 -218.5 -121t-105.5 -305z" />
<glyph unicode="&#xff;" d="M-12 -330l30 133q80 -31 154 -30q92 0 158 102l78 125l-193 803h-106l28 131h436l-28 -131h-160l139 -637l391 637h-159l28 131h435l-29 -131h-88l-629 -973q-119 -188 -276 -188q-105 -1 -209 28zM428 1135l41 204h180l-41 -204h-180zM823 1135l41 204h180l-43 -204 h-178z" />
<glyph unicode="&#x152;" horiz-adv-x="2048" d="M166 575q0 350 192.5 567.5t479.5 217.5q88 0 260 -10.5t260 -10.5h758l-82 -401h-164l55 270h-559l-98 -467h258l41 195h153l-108 -520h-154l41 194h-256l-100 -479h579l58 277h164l-86 -408h-625q-86 0 -262 -10t-262 -10q-258 0 -400.5 157t-142.5 438zM360 541 q0 -193 99.5 -311.5t275.5 -118.5q92 0 215 14l224 1075q-166 29 -326 29q-125 0 -222.5 -65.5t-152.5 -171t-84 -221t-29 -230.5z" />
<glyph unicode="&#x153;" horiz-adv-x="1705" d="M63 381q0 252 153 413q152 160 402 160q92 -4 179.5 -49t130.5 -135q150 184 377 184q182 0 275 -90t93 -260q0 -80 -31 -184h-669q-8 -33 -8 -74q2 -98 59 -166.5t164 -68.5q221 0 262 184h156q-29 -152 -137.5 -233.5t-264.5 -81.5q-137 0 -224 47t-134 166 q-53 -104 -151.5 -158.5t-217.5 -54.5q-207 0 -310.5 104t-103.5 297zM244 373q0 -127 63.5 -194.5t186.5 -67.5q11 -1 22 -1q96 0 166 65q78 73 108.5 175.5t30.5 216.5q0 113 -58 184.5t-161 71.5q-166 0 -262 -136t-96 -314zM985 551h514q6 27 6 57q0 94 -54 154.5 t-161 60.5q-119 0 -203 -79.5t-102 -192.5z" />
<glyph unicode="&#x178;" horiz-adv-x="1366" d="M199 1208l28 131h486l-29 -131h-182l231 -510l461 510h-195l29 131h514l-26 -131h-121l-596 -665l-88 -412h194l-28 -131h-574l29 131h196l88 412l-311 665h-106zM602 1503l41 205h180l-41 -205h-180zM997 1503l41 205h181l-43 -205h-179z" />
<glyph unicode="&#x2c6;" horiz-adv-x="569" d="M47 1065l272 295h175l153 -295h-151l-105 199l-176 -199h-168z" />
<glyph unicode="&#x2dc;" horiz-adv-x="569" d="M94 1112q14 109 59.5 168t147.5 59q80 -4 166 -57q79 -47 116 -47h3q39 0 67.5 28.5t32.5 67.5h107q-14 -106 -59.5 -166.5t-145.5 -60.5q-80 4 -166 57q-78 47 -119 47t-69.5 -28.5t-32.5 -67.5h-107z" />
<glyph unicode="&#x2013;" horiz-adv-x="1024" d="M-14 485l28 131h1024l-28 -131h-1024z" />
<glyph unicode="&#x2014;" horiz-adv-x="2048" d="M-14 485l28 131h2048l-28 -131h-2048z" />
<glyph unicode="&#x2018;" horiz-adv-x="569" d="M233 868l48 222l178 249h149l-198 -266h75l-43 -205h-209z" />
<glyph unicode="&#x2019;" horiz-adv-x="569" d="M193 868l198 267h-76l43 204h209l-47 -221l-178 -250h-149z" />
<glyph unicode="&#x201a;" horiz-adv-x="569" d="M-16 -266l198 266h-76l44 205h208l-47 -221l-178 -250h-149z" />
<glyph unicode="&#x201c;" d="M317 868l48 222l178 249h149l-198 -266h75l-43 -205h-209zM709 868l47 222l178 249h149l-198 -266h76l-43 -205h-209z" />
<glyph unicode="&#x201d;" d="M287 868l198 267h-75l43 204h209l-48 -221l-178 -250h-149zM678 868l199 267h-76l43 204h209l-47 -221l-179 -250h-149z" />
<glyph unicode="&#x201e;" d="M55 -266l199 266h-76l43 205h209l-47 -221l-178 -250h-150zM446 -266l199 266h-76l43 205h209l-47 -221l-178 -250h-150z" />
<glyph unicode="&#x2022;" horiz-adv-x="1024" d="M219 671.5q0 139.5 98.5 237t237.5 97.5t236.5 -97.5t97.5 -237t-97.5 -237.5t-236.5 -98t-237.5 98t-98.5 237.5z" />
<glyph unicode="&#x2026;" horiz-adv-x="2048" d="M147 0l43 205h209l-43 -205h-209zM829 0l43 205h209l-43 -205h-209zM1511 0l43 205h209l-43 -205h-209z" />
<glyph unicode="&#x2039;" horiz-adv-x="569" d="M119 471l260 406h153l-260 -406l78 -405h-153z" />
<glyph unicode="&#x203a;" horiz-adv-x="569" d="M18 66l261 405l-78 406h153l78 -406l-260 -405h-154z" />
<glyph unicode="&#x2122;" horiz-adv-x="2027" d="M131 1208v131h680v-131h-268v-712h-144v712h-268zM995 496v843h230l221 -616h4l217 616h229v-843h-143v688h-4l-240 -688h-127l-239 688h-4v-688h-144z" />
<glyph unicode="&#xe000;" horiz-adv-x="935" d="M0 935h935v-935h-935v935z" />
<glyph unicode="&#xfb01;" horiz-adv-x="1251" d="M4 0l29 131h153l142 672h-176l28 131h178l33 129q76 297 426 297q193 0 287 -76q88 -57 88 -223h-180q0 168 -191 168q-227 0 -268 -191l-23 -104h617l-168 -803h162l-27 -131h-483l28 131h148l141 672h-448l-142 -672h162l-26 -131h-490z" />
<glyph unicode="&#xfb02;" horiz-adv-x="1251" d="M4 0l31 131h149l146 672h-176l26 131h178l41 172q14 61 42 106t72 72t83 43t102.5 23.5t100.5 8.5t106 1q168 0 336 -27l-260 -1202h160l-27 -131h-483l28 131h150l225 1081q-43 16 -166 17q-59 0 -94 -3t-85 -16.5t-80.5 -47.5t-45.5 -89l-35 -139h226l-27 -131h-225 l-146 -672h166l-30 -131h-488z" />
<glyph unicode="&#xfb03;" horiz-adv-x="1933" d="M-14 0l26 131h160l141 672h-184l27 131h180l37 153q66 272 338 273q82 0 180 -23l-35 -125q-78 16 -115 17q-84 0 -137 -52.5t-72 -136.5l-22 -106h223l-26 -131h-224l-139 -672h164l-29 -131h-493zM668 0l26 131h160l141 672h-184l27 131h180l37 153q66 272 338 273 q82 0 180 -23l-35 -125q-78 16 -115 17q-84 0 -137 -52.5t-72 -136.5l-22 -106h223l-26 -131h-224l-139 -672h164l-29 -131h-493zM1337 0l27 131h147l142 672h-158l27 131h331l-167 -803h147l-27 -131h-469zM1688 1147l41 192h208l-41 -192h-208z" />
<glyph unicode="&#xfb04;" horiz-adv-x="1933" d="M-14 0l26 131h160l141 672h-184l27 131h180l37 153q66 272 338 273q82 0 180 -23l-35 -125q-78 16 -115 17q-84 0 -137 -52.5t-72 -136.5l-22 -106h223l-26 -131h-224l-139 -672h164l-29 -131h-493zM668 0l26 131h160l141 672h-184l27 131h180l37 153q66 272 338 273 q82 0 180 -23l-35 -125q-78 16 -115 17q-84 0 -137 -52.5t-72 -136.5l-22 -106h223l-26 -131h-224l-139 -672h164l-29 -131h-493zM1325 0l27 131h147l225 1077h-151l26 131h324l-252 -1208h164l-29 -131h-481z" />
</font>
</defs>
</svg>
