<?xml version="1.0" standalone="no"?>
<!DOCTYPE svg PUBLIC "-//W3C//DTD SVG 1.1//EN" "http://www.w3.org/Graphics/SVG/1.1/DTD/svg11.dtd" >
<svg xmlns="http://www.w3.org/2000/svg">
<metadata>
This is a custom SVG webfont generated by Font Squirrel.
Copyright   : c Copyright 1996 Autodesk Inc All rights reserved
</metadata>
<defs>
<font id="TxtRegular" horiz-adv-x="1475" >
<font-face units-per-em="2048" ascent="1638" descent="-410" />
<missing-glyph horiz-adv-x="500" />
<glyph unicode=" " />
<glyph unicode="!" horiz-adv-x="492" d="M230 0v246h33v-246h-33zM230 492v983h33v-983h-33z" />
<glyph unicode="&#x22;" horiz-adv-x="984" d="M232 992l246 491l28 -16l-246 -492zM478 992l245 491l29 -16l-246 -492z" />
<glyph unicode="#" d="M246 476v32h230v459h-230v33h230v475h32v-475h459v475h33v-475h229v-33h-229v-459h229v-32h-229v-476h-33v476h-459v-476h-32v476h-230zM508 508h459v459h-459v-459z" />
<glyph unicode="$" d="M224 983l262 263h235v229h33v-229h475v-33h-475v-459h236l262 -262l-262 -262h-236v-230h-33v230h-475v33h475v458h-235zM269 983l229 -229h223v459h-223zM754 263h223l230 229l-230 229h-223v-458z" />
<glyph unicode="%" d="M230 1213v278h278v-278h-278zM232 9l983 1474l29 -16l-984 -1475zM263 1246h213v213h-213v-213zM967 -16v279h279v-279h-279zM1000 17h213v213h-213v-213z" />
<glyph unicode="&#x26;" d="M230 240v258l239 240l-239 239v258l262 262l262 -262v-258l-240 -239l469 -469l234 235l24 -24l-235 -234l235 -233l-24 -25l-234 236l-239 -240h-258zM263 252l235 -235h234l229 229l-469 469l-229 -229v-234zM263 990l229 -230l229 230v233l-229 229l-229 -229v-233z " />
<glyph unicode="'" horiz-adv-x="738" d="M232 992l246 491l28 -16l-246 -492z" />
<glyph unicode="(" horiz-adv-x="984" d="M230 486v504l495 497l25 -24l-487 -486v-479l487 -485l-25 -25z" />
<glyph unicode=")" horiz-adv-x="984" d="M234 13l487 485v479l-487 486l24 24l496 -497v-504l-496 -498z" />
<glyph unicode="*" d="M234 258l465 463h-453v33h453l-465 463l24 24l480 -481l479 481l24 -24l-464 -463h452v-33h-452l464 -463l-24 -24l-479 481l-480 -481z" />
<glyph unicode="+" d="M246 721v33h475v475h33v-475h475v-33h-475v-475h-33v475h-475z" />
<glyph unicode="," horiz-adv-x="738" d="M234 -233l242 240v239h32v-252l-250 -252z" />
<glyph unicode="-" d="M246 721v33h983v-33h-983z" />
<glyph unicode="." horiz-adv-x="492" d="M230 0v246h33v-246h-33z" />
<glyph unicode="/" d="M232 9l983 1474l29 -16l-984 -1475z" />
<glyph unicode="0" horiz-adv-x="1230" d="M230 240v995l256 256h258l256 -256v-995l-256 -256h-258zM263 252l235 -235h234l235 235v971l-235 236h-234l-235 -236v-971z" />
<glyph unicode="1" horiz-adv-x="984" d="M234 1241l251 250h23v-1474h230v-33h-492v33h230v1419l-218 -219z" />
<glyph unicode="2" d="M230 -16v514l256 256h491l236 236v233l-236 236h-479l-240 -242l-24 24l252 250h504l256 -256v-258l-256 -256h-492l-235 -235v-469h966v-33h-999z" />
<glyph unicode="3" d="M234 234l24 24l240 -241h479l236 235v234l-236 235h-239v33h239l236 236v233l-236 236h-479l-240 -242l-24 24l252 250h504l256 -256v-258l-240 -239l240 -240v-258l-256 -256h-504z" />
<glyph unicode="4" d="M213 476l787 1048v-1016h229v-32h-229v-476h-33v476h-754zM279 508h688v918z" />
<glyph unicode="5" d="M230 967v524h999v-32h-966v-459h727l256 -256v-504l-256 -256h-504l-252 250l24 24l240 -241h479l236 235v480l-236 235h-747z" />
<glyph unicode="6" d="M230 240v750l502 501h251v-32h-239l-481 -482v-223h727l256 -256v-258l-256 -256h-504zM263 252l235 -235h479l236 235v234l-236 235h-714v-469z" />
<glyph unicode="7" d="M246 1459v32h1010l-750 -1499l-28 17l725 1450h-957z" />
<glyph unicode="8" d="M230 240v258l239 240l-239 239v258l256 256h504l256 -256v-258l-240 -239l240 -240v-258l-256 -256h-504zM263 252l235 -235h479l236 235v234l-236 235h-479l-235 -235v-234zM263 990l235 -236h479l236 236v233l-236 236h-479l-235 -236v-233z" />
<glyph unicode="9" d="M230 977v258l256 256h504l256 -256v-749l-502 -502h-252v33h240l481 481v223h-727zM263 990l235 -236h715v469l-236 236h-479l-235 -236v-233z" />
<glyph unicode=":" horiz-adv-x="492" d="M230 246v246h33v-246h-33zM230 738v245h33v-245h-33z" />
<glyph unicode=";" horiz-adv-x="738" d="M234 -235l242 258v469h32v-481l-250 -267zM476 738v245h32v-245h-32z" />
<glyph unicode="&#x3c;" horiz-adv-x="1230" d="M224 738l747 749l25 -24l-727 -725l727 -725l-25 -25z" />
<glyph unicode="=" d="M246 476v32h983v-32h-983zM246 967v33h983v-33h-983z" />
<glyph unicode="&#x3e;" horiz-adv-x="1230" d="M234 13l727 725l-727 725l24 24l748 -749l-748 -750z" />
<glyph unicode="?" horiz-adv-x="1230" d="M234 1241l252 250h258l256 -256v-258l-246 -245v-240h-33v252l246 246v233l-235 236h-234l-240 -242zM721 0v246h33v-246h-33z" />
<glyph unicode="@" d="M230 240v995l256 256h504l256 -256v-503l-279 -279v246l-223 -223h-268v268l256 256h268v-469l213 213v479l-236 236h-479l-235 -236v-971l235 -235h731v-33h-743zM508 508h224l235 236v223h-223l-236 -235v-224z" />
<glyph unicode="A" d="M230 0v496l489 979h38l489 -979v-496h-33v476h-950v-476h-33zM273 508h930l-465 930z" />
<glyph unicode="B" d="M246 -16v33h230v1442h-230v32h744l256 -256v-258l-240 -239l240 -240v-258l-256 -256h-744zM508 17h469l236 235v234l-236 235h-469v-704zM508 754h469l236 236v233l-236 236h-469v-705z" />
<glyph unicode="C" d="M230 240v995l256 256h504l251 -250l-24 -24l-240 242h-479l-235 -236v-971l235 -235h479l240 241l24 -24l-251 -250h-504z" />
<glyph unicode="D" d="M246 -16v33h230v1442h-230v32h744l256 -256v-995l-256 -256h-744zM508 17h469l236 235v971l-236 236h-469v-1442z" />
<glyph unicode="E" d="M230 -16v1507h999v-32h-966v-705h475v-33h-475v-704h966v-33h-999z" />
<glyph unicode="F" d="M230 0v1491h999v-32h-966v-705h475v-33h-475v-721h-33z" />
<glyph unicode="G" d="M230 240v995l256 256h743v-32h-731l-235 -236v-971l235 -235h715v704h-230v33h263v-770h-760z" />
<glyph unicode="H" d="M230 0v1475h33v-721h950v721h33v-1475h-33v721h-950v-721h-33z" />
<glyph unicode="I" horiz-adv-x="984" d="M246 -16v33h230v1442h-230v32h492v-32h-230v-1442h230v-33h-492z" />
<glyph unicode="J" d="M234 234l24 24l240 -241h479l236 235v1223h33v-1235l-256 -256h-504z" />
<glyph unicode="K" d="M230 0v1475h33v-721h223l731 733l24 -24l-727 -725l727 -725l-24 -25l-731 733h-223v-721h-33z" />
<glyph unicode="L" d="M230 -16v1491h33v-1458h966v-33h-999z" />
<glyph unicode="M" d="M230 0v1475h35l473 -946l473 946h35v-1475h-33v1405l-475 -950l-475 950v-1405h-33z" />
<glyph unicode="N" d="M230 0v1474l36 1l947 -1421v1421h33v-1475h-35l-948 1422v-1422h-33z" />
<glyph unicode="O" d="M230 -16v1507h1016v-1507h-1016zM263 17h950v1442h-950v-1442z" />
<glyph unicode="P" d="M230 0v1491h760l256 -256v-258l-256 -256h-727v-721h-33zM263 754h714l236 236v233l-236 236h-714v-705z" />
<glyph unicode="Q" d="M230 240v995l256 256h504l256 -256v-749l-240 -240l235 -233l-24 -25l-234 236l-239 -240h-258zM263 252l235 -235h234l229 229l-236 234l25 24l233 -235l230 229v725l-236 236h-479l-235 -236v-971z" />
<glyph unicode="R" d="M230 0v1491h760l256 -256v-258l-256 -256h-459l710 -708l-24 -25l-731 733h-223v-721h-33zM263 754h714l236 236v233l-236 236h-714v-705z" />
<glyph unicode="S" d="M224 1229l262 262h504l251 -250l-24 -24l-240 242h-479l-229 -230l983 -983l-262 -262h-504l-252 250l24 24l240 -241h479l230 229z" />
<glyph unicode="T" d="M246 1459v32h983v-32h-475v-1459h-33v1459h-475z" />
<glyph unicode="U" d="M230 240v1235h33v-1223l235 -235h479l236 235v1223h33v-1235l-256 -256h-504z" />
<glyph unicode="V" horiz-adv-x="1967" d="M232 1467l28 16l723 -1446l723 1446l29 -16l-734 -1467h-36z" />
<glyph unicode="W" horiz-adv-x="1967" d="M230 1469l33 12l475 -1429l245 737l246 -737l475 1429l33 -12l-491 -1469h-34l-229 686l-228 -686h-34z" />
<glyph unicode="X" d="M232 9l485 729l-485 729l28 16l478 -717l477 717l29 -16l-486 -729l486 -729l-29 -17l-477 717l-478 -717z" />
<glyph unicode="Y" d="M232 1467l28 16l478 -717l477 717l29 -16l-490 -733v-734h-33v734z" />
<glyph unicode="Z" d="M215 -16l983 1475h-952v32h1014l-983 -1474h952v-33h-1014z" />
<glyph unicode="[" horiz-adv-x="984" d="M230 -16v1507h508v-32h-475v-1442h475v-33h-508z" />
<glyph unicode="\" d="M232 1467l28 16l984 -1474l-29 -17z" />
<glyph unicode="]" horiz-adv-x="984" d="M246 -16v33h475v1442h-475v32h508v-1507h-508z" />
<glyph unicode="^" d="M234 996l504 501l503 -501l-24 -25l-479 481l-480 -481z" />
<glyph unicode="_" d="M246 -229h983v-33h-983v33z" />
<glyph unicode="`" horiz-adv-x="738" d="M232 1467l28 16l246 -491l-28 -17z" />
<glyph unicode="a" d="M230 240v504l256 256h258l256 -256v-492l241 -239l-24 -25l-234 236l-239 -240h-258zM263 252l235 -235h234l235 235v480l-235 235h-234l-235 -235v-480z" />
<glyph unicode="b" d="M224 492l6 6v977h33v-944l469 469h258l256 -256v-504l-256 -256h-258l-469 469v-453h-33v486zM269 492l475 -475h233l236 235v480l-236 235h-233z" />
<glyph unicode="c" d="M230 240v504l256 256h743v-33h-731l-235 -235v-480l235 -235h731v-33h-743z" />
<glyph unicode="d" d="M230 240v504l256 256h258l469 -469v944h33l6 -983l-6 -6v-486h-33v453l-469 -469h-258zM263 252l235 -235h234l475 475l-475 475h-234l-235 -235v-480z" />
<glyph unicode="e" d="M230 240v504l256 256h504l262 -262l-262 -262h-727v-224l235 -235h485v-33h-497zM263 508h714l230 230l-230 229h-479l-235 -235v-224z" />
<glyph unicode="f" d="M246 721v33h230v481l256 256h258l251 -250l-24 -24l-240 242h-233l-236 -236v-469h475v-33h-475v-721h-32v721h-230z" />
<glyph unicode="g" d="M230 240v504l256 256h504l256 -256v-996l-256 -256h-504l-252 250l24 25l240 -242h479l236 236v223h-727zM263 252l235 -235h715v715l-236 235h-479l-235 -235v-480z" />
<glyph unicode="h" d="M230 0v1475h33v-944l469 469h258l256 -256v-744h-33v732l-236 235h-233l-481 -481v-486h-33z" />
<glyph unicode="i" horiz-adv-x="492" d="M230 0v983h33v-983h-33zM230 1229v246h33v-246h-33z" />
<glyph unicode="j" horiz-adv-x="1230" d="M234 -258l24 25l240 -242h234l235 236v1222h33v-1235l-256 -256h-258zM967 1229v246h33v-246h-33z" />
<glyph unicode="k" d="M230 0v1475h33v-967h469l485 488l24 -25l-481 -479l481 -479l-24 -25l-485 488h-469v-476h-33z" />
<glyph unicode="l" horiz-adv-x="738" d="M230 240v1235h33v-1223l241 -239l-24 -25z" />
<glyph unicode="m" d="M230 0v983h33v-206l229 229l246 -246l245 246l263 -262v-744h-33v732l-230 229l-229 -229v-240h-33v240l-229 229l-229 -229v-732h-33z" />
<glyph unicode="n" d="M230 0v983h33v-452l469 469h258l256 -256v-744h-33v732l-236 235h-233l-481 -481v-486h-33z" />
<glyph unicode="o" d="M230 240v504l256 256h504l256 -256v-504l-256 -256h-504zM263 252l235 -235h479l236 235v480l-236 235h-479l-235 -235v-480z" />
<glyph unicode="p" d="M230 -491v1474h33v-206l223 223h504l256 -256v-504l-256 -256h-727v-475h-33zM263 17h714l236 235v480l-236 235h-479l-235 -235v-715z" />
<glyph unicode="q" d="M230 240v504l256 256h504l223 -223v206h33v-1474h-33v475h-727zM263 252l235 -235h715v715l-236 235h-479l-235 -235v-480z" />
<glyph unicode="r" d="M230 0v983h33v-452l469 469h258l251 -250l-24 -25l-240 242h-233l-481 -481v-486h-33z" />
<glyph unicode="s" d="M224 738l262 262h743v-33h-731l-229 -229l229 -230h492l262 -262l-262 -262h-744v33h731l230 229l-230 230h-491z" />
<glyph unicode="t" d="M246 967v33h475v475h33v-475h475v-33h-475v-715l229 -229l234 235l24 -24l-258 -256l-262 262v727h-475z" />
<glyph unicode="u" d="M230 240v743h33v-731l235 -235h234l481 481v485h33v-983h-33v453l-469 -469h-258z" />
<glyph unicode="v" d="M232 975l28 17l478 -955l477 955l29 -17l-488 -975h-36z" />
<glyph unicode="w" d="M230 979l33 9l229 -920l229 915h34l228 -915l230 920l33 -9l-246 -979h-34l-228 916l-229 -916h-34z" />
<glyph unicode="x" d="M234 13l481 479l-481 479l24 25l480 -482l479 482l24 -25l-481 -479l481 -479l-24 -25l-479 481l-480 -481z" />
<glyph unicode="y" d="M232 975l28 17l478 -955l477 955l29 -17l-742 -1483h-256v33h236l237 475z" />
<glyph unicode="z" d="M207 -16l983 983h-944v33h1022l-983 -983h944v-33h-1022z" />
<glyph unicode="{" horiz-adv-x="984" d="M224 738l252 252v245l249 252l25 -24l-242 -240v-246l-239 -239l239 -240v-246l242 -239l-25 -25l-249 252v246z" />
<glyph unicode="|" horiz-adv-x="492" d="M230 0v1475h33v-1475h-33z" />
<glyph unicode="}" horiz-adv-x="984" d="M234 13l242 239v246l239 240l-239 239v246l-242 240l24 24l250 -252v-245l252 -252l-252 -252v-246l-250 -252z" />
<glyph unicode="~" d="M234 750l254 254l491 -246l238 238l24 -25l-253 -254l-492 246l-238 -238z" />
<glyph unicode="&#xa0;" />
<glyph unicode="&#xa1;" horiz-adv-x="492" d="M230 0v983h33v-983h-33zM230 1229v246h33v-246h-33z" />
<glyph unicode="&#xa2;" d="M230 240v504l256 256h403l78 235l33 -12l-76 -223h305v-33h-315l-318 -950h633v-33h-643l-78 -236l-32 13l75 223h-65zM263 252l235 -235h64l317 950h-381l-235 -235v-480z" />
<glyph unicode="&#xa3;" d="M207 -16l269 268v469h-230v33h230v481l262 262l258 -256l-25 -24l-233 235l-230 -229v-469h230v-33h-230v-481l-223 -223h944v-33h-1022z" />
<glyph unicode="&#xa5;" d="M232 1467l28 16l478 -717l477 717l29 -16l-476 -713h215v-33h-229v-213h229v-32h-229v-476h-33v476h-229v32h229v213h-229v33h215z" />
<glyph unicode="&#xa7;" horiz-adv-x="1230" d="M224 738l245 245l-245 246l262 262h258l252 -250l-25 -24l-239 242h-234l-229 -230l229 -229h246l262 -262l-246 -246l246 -246l-262 -262h-258l-252 250l24 24l240 -241h234l229 229l-229 230h-246zM269 738l229 -230h234l229 230l-229 229h-234z" />
<glyph unicode="&#xa8;" horiz-adv-x="984" d="M230 1229v246h33v-246h-33zM721 1229v246h33v-246h-33z" />
<glyph unicode="&#xaa;" horiz-adv-x="984" d="M230 1100v258l133 133h135l133 -133v-246l119 -116l-25 -25l-110 113l-117 -117h-135zM246 721v33h492v-33h-492zM263 1112l112 -112h111l112 112v234l-112 113h-111l-112 -113v-234z" />
<glyph unicode="&#xab;" d="M224 738l501 503l25 -24l-481 -479l481 -480l-25 -24zM715 738l502 503l24 -24l-481 -479l481 -480l-24 -24z" />
<glyph unicode="&#xad;" d="M246 721v33h983v-33h-983z" />
<glyph unicode="&#x2212;" d="M246 721v33h983v-33h-983z" />
<glyph unicode="&#xaf;" horiz-adv-x="984" d="M246 1213v33h492v-33h-492z" />
<glyph unicode="&#x2c9;" horiz-adv-x="984" d="M246 1213v33h492v-33h-492z" />
<glyph unicode="&#xb0;" horiz-adv-x="984" d="M224 1229l268 268l268 -268l-268 -268zM269 1229l223 -223l223 223l-223 223z" />
<glyph unicode="&#xb1;" d="M246 230v33h983v-33h-983zM246 967v33h475v475h33v-475h475v-33h-475v-475h-33v475h-475z" />
<glyph unicode="&#xb2;" d="M230 -16v514l256 256h491l236 236v233l-236 236h-479l-240 -242l-24 24l252 250h504l256 -256v-258l-256 -256h-492l-235 -235v-469h966v-33h-999z" />
<glyph unicode="&#xb3;" d="M234 234l24 24l240 -241h479l236 235v234l-236 235h-239v33h239l236 236v233l-236 236h-479l-240 -242l-24 24l252 250h504l256 -256v-258l-240 -239l240 -240v-258l-256 -256h-504z" />
<glyph unicode="&#xb4;" horiz-adv-x="738" d="M232 992l246 491l28 -16l-246 -492z" />
<glyph unicode="&#xb5;" d="M230 -489l246 1474l32 -2v-731l236 -235h229l240 479v487h33v-983h-33v422l-219 -438h-262l-256 256v545l-213 -1278z" />
<glyph unicode="&#x3bc;" d="M230 -489l246 1474l32 -2v-731l236 -235h229l240 479v487h33v-983h-33v422l-219 -438h-262l-256 256v545l-213 -1278z" />
<glyph unicode="&#xb8;" horiz-adv-x="738" d="M230 0h33v-229h245v-279h-262v33h230v213h-246v262z" />
<glyph unicode="&#xb9;" horiz-adv-x="984" d="M234 1241l251 250h23v-1474h230v-33h-492v33h230v1419l-218 -219z" />
<glyph unicode="&#xba;" horiz-adv-x="984" d="M230 1100v258l133 133h258l133 -133v-258l-133 -133h-258zM246 721v33h492v-33h-492zM263 1112l112 -112h234l112 112v234l-112 113h-234l-112 -113v-234z" />
<glyph unicode="&#xbb;" d="M234 258l481 480l-481 479l24 24l502 -503l-502 -504zM725 258l482 480l-482 479l25 24l502 -503l-502 -504z" />
<glyph unicode="&#xbc;" horiz-adv-x="1721" d="M234 11l1229 1474l24 -20l-1229 -1475zM357 1364l151 150v-760h107v-33h-246v33h107v682l-95 -96zM828 230l418 557v-524h106v-33h-106v-230h-33v230h-385zM893 263h320v426z" />
<glyph unicode="&#xbd;" horiz-adv-x="1721" d="M234 11l1229 1474l24 -20l-1229 -1475zM357 1364l151 150v-760h107v-33h-246v33h107v682l-95 -96zM967 -16v268l133 133h246l113 113v111l-113 112h-234l-116 -119l-25 25l129 127h258l133 -133v-135l-133 -133h-246l-112 -113v-223h475v-33h-508z" />
<glyph unicode="&#xbf;" horiz-adv-x="1230" d="M230 240v258l246 246v239h32v-251l-245 -246v-234l235 -235h234l239 241l25 -24l-252 -250h-258zM476 1229v246h32v-246h-32z" />
<glyph unicode="&#xc0;" d="M230 0v498l508 508l508 -508v-498h-33v476h-950v-476h-33zM238 1461l16 28l492 -245l-17 -29zM285 508h905l-452 453z" />
<glyph unicode="&#xc1;" d="M230 0v498l508 508l508 -508v-498h-33v476h-950v-476h-33zM285 508h905l-452 453zM729 1244l492 245l16 -28l-491 -246z" />
<glyph unicode="&#xc2;" d="M230 0v498l508 508l508 -508v-498h-33v476h-950v-476h-33zM234 996l504 501l503 -501l-24 -25l-479 481l-480 -481zM285 508h905l-452 453z" />
<glyph unicode="&#xc3;" d="M230 0v498l508 508l508 -508v-498h-33v476h-950v-476h-33zM234 1241l254 254l491 -245l238 237l24 -24l-253 -254l-492 245l-238 -237zM285 508h905l-452 453z" />
<glyph unicode="&#xc4;" d="M230 0v496l489 979h38l489 -979v-496h-33v476h-950v-476h-33zM230 1229v246h33v-246h-33zM273 508h930l-465 930zM1213 1229v246h33v-246h-33z" />
<glyph unicode="&#xc5;" d="M230 0v498l485 485l-246 246l269 268l268 -268l-246 -246l486 -485v-498h-33v476h-950v-476h-33zM285 508h905l-452 453zM514 1229l224 -223l223 223l-223 223z" />
<glyph unicode="&#xc6;" d="M230 0v742l499 749h500v-32h-475v-705h475v-33h-475v-704h475v-33h-508v492h-458v-476h-33zM263 508h458v914l-458 -688v-226z" />
<glyph unicode="&#xc7;" d="M230 240v995l256 256h504l251 -250l-24 -24l-240 242h-479l-235 -236v-971l235 -235h479l240 241l24 -24l-251 -250h-236v-213h246v-279h-262v33h229v213h-246v246h-235z" />
<glyph unicode="&#xc8;" d="M230 -16v1016h999v-33h-966v-459h475v-32h-475v-459h966v-33h-999zM484 1461l16 28l492 -245l-17 -29z" />
<glyph unicode="&#xc9;" d="M230 -16v1016h999v-33h-966v-459h475v-32h-475v-459h966v-33h-999zM484 1244l491 245l17 -28l-492 -246z" />
<glyph unicode="&#xca;" d="M230 -16v1016h999v-33h-966v-459h475v-32h-475v-459h966v-33h-999zM480 1241l258 256l258 -256l-25 -24l-233 235l-234 -235z" />
<glyph unicode="&#xcb;" d="M230 -16v1016h999v-33h-966v-459h475v-32h-475v-459h966v-33h-999zM476 1229v246h32v-246h-32zM967 1229v246h33v-246h-33z" />
<glyph unicode="&#xcc;" horiz-adv-x="984" d="M238 1461l16 28l492 -245l-17 -29zM246 -16v33h230v950h-230v33h492v-33h-230v-950h230v-33h-492z" />
<glyph unicode="&#xcd;" horiz-adv-x="984" d="M238 1244l491 245l17 -28l-492 -246zM246 -16v33h230v950h-230v33h492v-33h-230v-950h230v-33h-492z" />
<glyph unicode="&#xce;" horiz-adv-x="984" d="M234 1241l258 256l258 -256l-25 -24l-233 235l-234 -235zM246 -16v33h230v950h-230v33h492v-33h-230v-950h230v-33h-492z" />
<glyph unicode="&#xcf;" horiz-adv-x="984" d="M230 1229v246h33v-246h-33zM246 -16v33h230v950h-230v33h492v-33h-230v-950h230v-33h-492zM721 1229v246h33v-246h-33z" />
<glyph unicode="&#xd0;" d="M123 721v33h107v737h760l256 -256v-995l-256 -256h-760v737h-107zM263 17h714l236 235v971l-236 236h-714v-705h352v-33h-352v-704z" />
<glyph unicode="&#xd1;" d="M230 0v983h39l944 -944v944h33v-983h-39l-944 945v-945h-33zM234 1241l254 254l491 -245l238 237l24 -24l-253 -254l-492 245l-238 -237z" />
<glyph unicode="&#xd2;" d="M230 -16v1016h1016v-1016h-1016zM263 17h950v950h-950v-950zM484 1461l16 28l492 -245l-17 -29z" />
<glyph unicode="&#xd3;" d="M230 -16v1016h1016v-1016h-1016zM263 17h950v950h-950v-950zM484 1244l491 245l17 -28l-492 -246z" />
<glyph unicode="&#xd4;" d="M230 -16v1016h1016v-1016h-1016zM263 17h950v950h-950v-950zM480 1241l258 256l258 -256l-25 -24l-233 235l-234 -235z" />
<glyph unicode="&#xd5;" d="M230 -16v1016h1016v-1016h-1016zM234 1241l254 254l491 -245l238 237l24 -24l-253 -254l-492 245l-238 -237zM263 17h950v950h-950v-950z" />
<glyph unicode="&#xd6;" d="M230 -16v1016h1016v-1016h-1016zM263 17h950v950h-950v-950zM476 1229v246h32v-246h-32zM967 1229v246h33v-246h-33z" />
<glyph unicode="&#xd7;" d="M234 13l481 479l-481 479l24 25l480 -482l479 482l24 -25l-481 -479l481 -479l-24 -25l-479 481l-480 -481z" />
<glyph unicode="&#xd8;" d="M230 240v995l256 256h504l139 -137l86 129l29 -16l-93 -137l95 -95v-995l-256 -256h-504l-140 137l-86 -129l-28 17l92 137zM263 252l79 -78l768 1151l-133 134h-479l-235 -236v-971zM365 150l133 -133h479l236 235v971l-80 78z" />
<glyph unicode="&#xd9;" d="M230 240v1235h33v-1223l235 -235h479l236 235v1223h33v-1235l-256 -256h-504zM484 1461l16 28l492 -245l-17 -29z" />
<glyph unicode="&#xda;" d="M230 240v1235h33v-1223l235 -235h479l236 235v1223h33v-1235l-256 -256h-504zM484 1244l491 245l17 -28l-492 -246z" />
<glyph unicode="&#xdb;" d="M230 240v1235h33v-1223l235 -235h479l236 235v1223h33v-1235l-256 -256h-504zM480 1241l258 256l258 -256l-25 -24l-233 235l-234 -235z" />
<glyph unicode="&#xdc;" d="M230 240v1235h33v-1223l235 -235h479l236 235v1223h33v-1235l-256 -256h-504zM476 1229v246h32v-246h-32zM967 1229v246h33v-246h-33z" />
<glyph unicode="&#xdd;" d="M234 971l24 25l480 -482l479 482l24 -25l-487 -485v-486h-33v486zM484 1244l491 245l17 -28l-492 -246z" />
<glyph unicode="&#xde;" d="M230 0v1475h33v-352h727l256 -256v-258l-256 -256h-727v-353h-33zM263 385h714l236 236v233l-236 236h-714v-705z" />
<glyph unicode="&#xdf;" d="M234 13l242 239v983l256 256h258l256 -256v-258l-240 -239l240 -240v-258l-256 -256h-252v33h239l236 235v234l-252 252l252 252v233l-236 236h-233l-236 -236v-983l-250 -252z" />
<glyph unicode="&#xe0;" d="M230 240v504l256 256h258l256 -256v-492l241 -239l-24 -25l-234 236l-239 -240h-258zM263 252l235 -235h234l235 235v480l-235 235h-234l-235 -235v-480zM361 1461l16 28l492 -245l-17 -29z" />
<glyph unicode="&#xe1;" d="M230 240v504l256 256h258l256 -256v-492l241 -239l-24 -25l-234 236l-239 -240h-258zM263 252l235 -235h234l235 235v480l-235 235h-234l-235 -235v-480zM361 1244l491 245l17 -28l-492 -246z" />
<glyph unicode="&#xe2;" d="M230 240v504l256 256h258l256 -256v-492l241 -239l-24 -25l-234 236l-239 -240h-258zM263 252l235 -235h234l235 235v480l-235 235h-234l-235 -235v-480zM357 1241l258 256l258 -256l-25 -24l-233 235l-234 -235z" />
<glyph unicode="&#xe3;" d="M230 240v504l256 256h258l256 -256v-492l241 -239l-24 -25l-234 236l-239 -240h-258zM263 252l235 -235h234l235 235v480l-235 235h-234l-235 -235v-480zM357 1241l131 132l246 -123l114 114l25 -24l-131 -131l-246 123l-115 -115z" />
<glyph unicode="&#xe4;" d="M230 240v504l256 256h258l256 -256v-492l241 -239l-24 -25l-234 236l-239 -240h-258zM230 1229v246h33v-246h-33zM263 252l235 -235h234l235 235v480l-235 235h-234l-235 -235v-480zM967 1229v246h33v-246h-33z" />
<glyph unicode="&#xe5;" d="M230 240v504l256 256h90l-230 229l269 268l268 -268l-229 -229h90l256 -256v-492l241 -239l-24 -25l-234 236l-239 -240h-258zM263 252l235 -235h234l235 235v480l-235 235h-111l-6 -6l-6 6h-111l-235 -235v-480zM392 1229l223 -223l223 223l-223 223z" />
<glyph unicode="&#xe6;" d="M230 240v504l262 262l246 -246l245 246l263 -262v-268h-492v-224l236 -235h239v-33h-252l-223 223v-207h-33v207l-229 -229zM263 252l229 -229l229 229v480l-229 229l-229 -229v-480zM754 508h459v224l-230 229l-229 -229v-224z" />
<glyph unicode="&#xe7;" d="M230 240v504l256 256h743v-33h-731l-235 -235v-480l235 -235h731v-33h-475v-213h246v-279h-262v33h229v213h-246v246h-235z" />
<glyph unicode="&#xe8;" d="M230 240v504l256 256h504l262 -262l-262 -262h-727v-224l235 -235h485v-33h-497zM263 508h714l230 230l-230 229h-479l-235 -235v-224zM484 1461l16 28l492 -245l-17 -29z" />
<glyph unicode="&#xe9;" d="M230 240v504l256 256h504l262 -262l-262 -262h-727v-224l235 -235h485v-33h-497zM263 508h714l230 230l-230 229h-479l-235 -235v-224zM484 1244l491 245l17 -28l-492 -246z" />
<glyph unicode="&#xea;" d="M230 240v504l256 256h504l262 -262l-262 -262h-727v-224l235 -235h485v-33h-497zM263 508h714l230 230l-230 229h-479l-235 -235v-224zM480 1241l258 256l258 -256l-25 -24l-233 235l-234 -235z" />
<glyph unicode="&#xeb;" d="M230 240v504l256 256h504l262 -262l-262 -262h-727v-224l235 -235h485v-33h-497zM263 508h714l230 230l-230 229h-479l-235 -235v-224zM476 1229v246h32v-246h-32zM967 1229v246h33v-246h-33z" />
<glyph unicode="&#xec;" horiz-adv-x="984" d="M238 1461l16 28l492 -245l-17 -29zM476 0v983h32v-983h-32z" />
<glyph unicode="&#xed;" horiz-adv-x="984" d="M238 1244l491 245l17 -28l-492 -246zM476 0v983h32v-983h-32z" />
<glyph unicode="&#xee;" horiz-adv-x="984" d="M234 1241l258 256l258 -256l-25 -24l-233 235l-234 -235zM476 0v983h32v-983h-32z" />
<glyph unicode="&#xef;" horiz-adv-x="984" d="M230 1229v246h33v-246h-33zM476 0v983h32v-983h-32zM721 1229v246h33v-246h-33z" />
<glyph unicode="&#xf0;" d="M230 240v504l256 256h459l-293 291l-152 -76l-16 29l143 71l-141 144h-240v32h252l162 -159l315 157l17 -28l-308 -154l562 -563v-504l-256 -256h-504zM263 252l235 -235h479l236 235v480l-236 235h-479l-235 -235v-480z" />
<glyph unicode="&#xf1;" d="M230 0v983h33v-452l469 469h258l256 -256v-744h-33v732l-236 235h-233l-481 -481v-486h-33zM234 1241l254 254l491 -245l238 237l24 -24l-253 -254l-492 245l-238 -237z" />
<glyph unicode="&#xf2;" d="M230 240v504l256 256h504l256 -256v-504l-256 -256h-504zM263 252l235 -235h479l236 235v480l-236 235h-479l-235 -235v-480zM484 1461l16 28l492 -245l-17 -29z" />
<glyph unicode="&#xf3;" d="M230 240v504l256 256h504l256 -256v-504l-256 -256h-504zM263 252l235 -235h479l236 235v480l-236 235h-479l-235 -235v-480zM484 1244l491 245l17 -28l-492 -246z" />
<glyph unicode="&#xf4;" d="M230 240v504l256 256h504l256 -256v-504l-256 -256h-504zM263 252l235 -235h479l236 235v480l-236 235h-479l-235 -235v-480zM480 1241l258 256l258 -256l-25 -24l-233 235l-234 -235z" />
<glyph unicode="&#xf5;" d="M230 240v504l256 256h504l256 -256v-504l-256 -256h-504zM234 1241l254 254l491 -245l238 237l24 -24l-253 -254l-492 245l-238 -237zM263 252l235 -235h479l236 235v480l-236 235h-479l-235 -235v-480z" />
<glyph unicode="&#xf6;" d="M230 240v504l256 256h504l256 -256v-504l-256 -256h-504zM230 1229v246h33v-246h-33zM263 252l235 -235h479l236 235v480l-236 235h-479l-235 -235v-480zM1213 1229v246h33v-246h-33z" />
<glyph unicode="&#xf7;" d="M246 721v33h983v-33h-983zM721 246v246h33v-246h-33zM721 983v246h33v-246h-33z" />
<glyph unicode="&#xf8;" d="M230 240v504l256 256h504l116 -117l111 113l24 -25l-112 -110l117 -117v-504l-256 -256h-504l-117 117l-111 -113l-24 25l112 110zM263 252l106 -106l715 715l-107 106h-479l-235 -235v-480zM392 123l106 -106h479l236 235v480l-107 106z" />
<glyph unicode="&#xf9;" d="M230 240v743h33v-731l235 -235h234l481 481v485h33v-983h-33v453l-469 -469h-258zM484 1461l16 28l492 -245l-17 -29z" />
<glyph unicode="&#xfa;" d="M230 240v743h33v-731l235 -235h234l481 481v485h33v-983h-33v453l-469 -469h-258zM484 1244l491 245l17 -28l-492 -246z" />
<glyph unicode="&#xfb;" d="M230 240v743h33v-731l235 -235h234l481 481v485h33v-983h-33v453l-469 -469h-258zM480 1241l258 256l258 -256l-25 -24l-233 235l-234 -235z" />
<glyph unicode="&#xfc;" d="M230 240v743h33v-731l235 -235h234l481 481v485h33v-983h-33v453l-469 -469h-258zM476 1229v246h32v-246h-32zM967 1229v246h33v-246h-33z" />
<glyph unicode="&#xfd;" d="M232 975l28 17l478 -955l477 955l29 -17l-742 -1483h-256v33h236l237 475zM484 1244l491 245l17 -28l-492 -246z" />
<glyph unicode="&#xfe;" d="M230 -491v1966h33v-698l223 223h504l256 -256v-504l-256 -256h-727v-475h-33zM263 17h714l236 235v480l-236 235h-479l-235 -235v-715z" />
<glyph unicode="&#xff;" d="M232 975l28 17l478 -955l477 955l29 -17l-742 -1483h-256v33h236l237 475zM476 1229v246h32v-246h-32zM967 1229v246h33v-246h-33z" />
<glyph unicode="&#x152;" horiz-adv-x="2950" d="M230 -16v1507h1016v-1507h-1016zM263 17h950v1442h-950v-1442zM1705 -16v1507h999v-32h-966v-705h475v-33h-475v-704h966v-33h-999z" />
<glyph unicode="&#x153;" horiz-adv-x="2950" d="M230 240v504l256 256h504l256 -256v-504l-256 -256h-504zM263 252l235 -235h479l236 235v480l-236 235h-479l-235 -235v-480zM1705 240v504l256 256h504l262 -262l-262 -262h-727v-224l235 -235h485v-33h-497zM1738 508h714l230 230l-230 229h-479l-235 -235v-224z" />
<glyph unicode="&#x178;" d="M234 971l24 25l480 -482l479 482l24 -25l-487 -485v-486h-33v486zM476 1229v246h32v-246h-32zM967 1229v246h33v-246h-33z" />
<glyph unicode="&#x2c6;" horiz-adv-x="984" d="M234 1241l258 256l258 -256l-25 -24l-233 235l-234 -235z" />
<glyph unicode="&#x2dc;" horiz-adv-x="738" d="M-12 1241l258 256l246 -245l233 235l25 -24l-258 -256l-246 245l-233 -235z" />
<glyph unicode="&#x2013;" horiz-adv-x="1024" d="M204 512v204h616v-204h-616z" />
<glyph unicode="&#x2014;" horiz-adv-x="2048" d="M204 512v204h1640v-204h-1640z" />
<glyph unicode="&#x2018;" horiz-adv-x="738" d="M232 1467l28 16l246 -491l-28 -17z" />
<glyph unicode="&#x2019;" horiz-adv-x="738" d="M232 992l246 491l28 -16l-246 -492z" />
<glyph unicode="&#x201a;" horiz-adv-x="738" d="M232 -237l246 491l28 -16l-246 -492z" />
<glyph unicode="&#x201c;" horiz-adv-x="984" d="M232 1467l28 16l246 -491l-28 -17zM478 1467l28 16l246 -491l-29 -17z" />
<glyph unicode="&#x201d;" horiz-adv-x="984" d="M232 992l246 491l28 -16l-246 -492zM478 992l245 491l29 -16l-246 -492z" />
<glyph unicode="&#x201e;" horiz-adv-x="984" d="M232 -237l246 491l28 -16l-246 -492zM478 -237l245 491l29 -16l-246 -492z" />
<glyph unicode="&#x2026;" horiz-adv-x="1476" d="M230 0v246h33v-246h-33zM722 0v246h33v-246h-33zM1214 0v246h33v-246h-33z" />
<glyph unicode="&#x2039;" horiz-adv-x="1230" d="M224 738l747 749l25 -24l-727 -725l727 -725l-25 -25z" />
<glyph unicode="&#x203a;" horiz-adv-x="1230" d="M234 13l727 725l-727 725l24 24l748 -749l-748 -750z" />
<glyph unicode="&#x2122;" horiz-adv-x="2950" d="M246 1459v32h983v-32h-475v-1459h-33v1459h-475zM1705 0v1475h35l473 -946l473 946h35v-1475h-33v1405l-475 -950l-475 950v-1405h-33z" />
<glyph unicode="&#xe000;" horiz-adv-x="995" d="M0 995h995v-995h-995v995z" />
<glyph unicode="&#xfb01;" horiz-adv-x="1967" d="M246 721v33h230v481l256 256h258l251 -250l-24 -24l-240 242h-233l-236 -236v-469h475v-33h-475v-721h-32v721h-230zM1705 0v983h33v-983h-33zM1705 1229v246h33v-246h-33z" />
<glyph unicode="&#xfb02;" horiz-adv-x="2213" d="M246 721v33h230v481l256 256h258l251 -250l-24 -24l-240 242h-233l-236 -236v-469h475v-33h-475v-721h-32v721h-230zM1705 240v1235h33v-1223l241 -239l-24 -25z" />
<glyph unicode="&#xfb03;" horiz-adv-x="3442" d="M246 721v33h230v481l256 256h258l251 -250l-24 -24l-240 242h-233l-236 -236v-469h475v-33h-475v-721h-32v721h-230zM1721 721v33h230v481l256 256h258l251 -250l-24 -24l-240 242h-233l-236 -236v-469h475v-33h-475v-721h-32v721h-230zM3180 0v983h33v-983h-33z M3180 1229v246h33v-246h-33z" />
<glyph unicode="&#xfb04;" horiz-adv-x="3688" d="M246 721v33h230v481l256 256h258l251 -250l-24 -24l-240 242h-233l-236 -236v-469h475v-33h-475v-721h-32v721h-230zM1721 721v33h230v481l256 256h258l251 -250l-24 -24l-240 242h-233l-236 -236v-469h475v-33h-475v-721h-32v721h-230zM3180 240v1235h33v-1223l241 -239 l-24 -25z" />
</font>
</defs>
</svg>
